<svg width="373" height="373" viewBox="0 0 373 373" fill="none" xmlns="http://www.w3.org/2000/svg">
<circle cx="186.5" cy="186.5" r="186.5" fill="#FF9900"/>
<path d="M170.288 130.056C170.288 132.957 169.435 135.261 167.728 136.968C166.107 138.589 163.248 139.827 159.152 140.68C155.056 141.448 149.211 141.96 141.616 142.216C137.776 157.405 127.536 165 110.896 165C107.483 165 104.752 164.275 102.704 162.824C100.741 161.288 99.76 159.581 99.76 157.704C99.76 155.741 100.443 154.035 101.808 152.584C103.173 151.133 105.691 149.768 109.36 148.488C112.944 147.208 115.376 145.203 116.656 142.472C107.099 142.301 99.8027 141.875 94.768 141.192C89.8187 140.424 86.32 139.187 84.272 137.48C82.224 135.773 81.2 133.299 81.2 130.056C81.2 126.813 82.224 124.381 84.272 122.76C86.32 121.139 89.8187 120.029 94.768 119.432C99.8027 118.749 107.312 118.365 117.296 118.28C117.211 116.061 116.997 113.587 116.656 110.856L116.4 107.912C112.219 108.253 107.355 108.424 101.808 108.424C95.664 108.424 90.7573 107.784 87.088 106.504C83.504 105.139 81.712 102.323 81.712 98.056C81.712 94.984 82.6933 92.552 84.656 90.76C86.704 88.8827 89.264 87.432 92.336 86.408C95.408 85.384 99.76 84.232 105.392 82.952L109.872 81.928L123.312 78.6C130.736 76.6373 136.581 75.2293 140.848 74.376C145.2 73.5227 149.253 73.096 153.008 73.096C156.933 73.096 160.304 74.248 163.12 76.552C165.936 78.856 167.344 82.1413 167.344 86.408C167.344 90.248 165.083 93.704 160.56 96.776C156.037 99.848 149.808 102.323 141.872 104.2C142.725 107.869 143.237 112.648 143.408 118.536C150.576 118.792 156.037 119.304 159.792 120.072C163.632 120.755 166.32 121.864 167.856 123.4C169.477 124.936 170.288 127.155 170.288 130.056ZM145.072 269.064C150.107 269.064 154.117 269.875 157.104 271.496C160.176 273.032 161.712 275.933 161.712 280.2C161.712 285.405 158.427 288.819 151.856 290.44C145.285 292.061 136.496 292.872 125.488 292.872C113.627 292.872 103.259 289.416 94.384 282.504C85.5947 275.592 81.2 262.749 81.2 243.976C81.2 230.664 82.1387 221.021 84.016 215.048C85.2107 211.293 86.8747 208.264 89.008 205.96C91.1413 203.656 94.1707 202.504 98.096 202.504C105.605 202.504 110.213 206.685 111.92 215.048C112.603 218.12 113.029 222.088 113.2 226.952C123.867 226.952 132.187 227.037 138.16 227.208C144.133 227.379 149.04 227.72 152.88 228.232C156.379 228.744 159.024 230.109 160.816 232.328C162.693 234.461 163.632 236.979 163.632 239.88C163.632 242.781 162.693 245.341 160.816 247.56C158.939 249.779 156.293 251.059 152.88 251.4C149.125 251.656 143.749 251.827 136.752 251.912C129.755 251.997 121.989 252.04 113.456 252.04C113.541 255.112 113.712 257.757 113.968 259.976C114.224 262.792 115.376 264.84 117.424 266.12C119.472 267.4 122.16 268.211 125.488 268.552C128.816 268.893 133.595 269.064 139.824 269.064H145.072ZM140.336 223.368C137.947 223.368 136.24 222.429 135.216 220.552C134.277 218.589 133.808 215.688 133.808 211.848C133.808 208.52 134.277 206.003 135.216 204.296C136.24 202.504 137.947 201.608 140.336 201.608C144.859 201.608 147.12 205.064 147.12 211.976C147.12 215.731 146.565 218.589 145.456 220.552C144.432 222.429 142.725 223.368 140.336 223.368ZM156.208 223.368C153.819 223.368 152.155 222.429 151.216 220.552C150.363 218.589 149.936 215.816 149.936 212.232C149.936 205.149 152.112 201.608 156.464 201.608C161.072 201.608 163.376 204.893 163.376 211.464C163.376 219.4 160.987 223.368 156.208 223.368Z" fill="white"/>
</svg>
