<svg xmlns="http://www.w3.org/2000/svg" id="Layer_1" width="274.42mm" height="665.424" data-name="Layer 1" viewBox="0 0 777.88 499.08"><defs><style>.cls-1{fill:#fff;stroke:#231f20;stroke-miterlimit:10;stroke-width:.5px}</style></defs><path d="M429.4,502.15h0L426,504.79c7.89-.34,31.17-10.87,32.71-14.31-4.57-.45-28.85,8.41-32.26,11.95Zm-9-179.2-4.76-5.5-1,.82,9.92,18.31,1.12-.51q-1.59-6.17-3.17-12.33c4.21,6.29,8.66,12.39,14.46,17.32-1.07-4.73-4.11-7.69-7.4-11-5.62-5.68-10.07-12.63-14.47-19.4-5.92-9.12-11.29-18.6-17-27.88-1.67-2.72-3.63-5.27-5.82-8.43-.85,5.7,4.48,17.27,8.78,20L396,283.91l.43-.19ZM550.67,452.68c-1.4.33-2.82,1-4.2.91a19.69,19.69,0,0,1-6.92-1.24c-2.12-1-2.66-3.1-1.49-5.45a19,19,0,0,0,1-3.48l-1.15-.4c-.72,1.88-2.2,3.85-2,5.62.29,2.39,1.88,4.62,2.69,6.41l-12.29,10.4.87,1.06,3.79-2.71c-5.25,8.28-11,16.87-16.25,25.77-4.1,6.94-5.4,14.16-.74,21.75,3.37,5.5,9.58,9,14.48,7.15-11.86-4.7-14.89-7.83-13.53-14.59,1.64,2.3,3,4.33,4.52,6.3,2.54,3.36,5.4,6.42,10.07,6s9.24-.63,13.54-2c11.9-3.74,24.67-5.51,34.47-14.37,3.4-3.08,7.3-5.68,10.35-9.06,7.32-8.07,12.86-17.15,14.18-28.32a8.59,8.59,0,0,1,2.11-4.44c3.19-3.56,6.85-6.7,9.9-10.36a72.81,72.81,0,0,0,7.37-10.78c1.12-2,1.68-4.66-1-5.84-.38,2.32-.12,4.76-1.17,6.33A147.62,147.62,0,0,1,608,452.26c-3.63,4.19-7.91,7.82-11.9,11.69l.07-.06c-2.23,1.16-4.53,2.2-6.68,3.48-7.17,4.28-14.18,8.79-23,9.26-5.91.32-8.9-1.15-10.08-7s-1.6-12-2.39-18.07c-.21-1.63-.52-3.24-1-5.88-1.16,3.21-1.84,5.11-2.53,7Zm132-52.83c10.28-13.29,17.39-28.31,23.39-44.61,14.17,12.6,26.54,25.41,35.91,40.95a19.87,19.87,0,0,0-2.32-5.43c-7.56-12.85-17.79-23.44-28.56-33.55-2.62-2.46-4.44-4.75-4.09-8.78.4-4.56-3.61-6.73-7.55-4.22a30.47,30.47,0,0,0-6.33,5.9,9.08,9.08,0,0,1-11.5,2.11L680.24,358c7.22-1.22,5.62-1.67,8.23,5,.38-.49.93-.87.93-1.26.07-6.28,4.56-10,8.42-13.86,1.35-1.36,3.88-1.56,5.88-2.29.39,2.07,1.5,4.31,1.06,6.19-3.27,13.78-9.67,26.19-17.59,38.62.63-2.46,1.09-4.24,1.55-6l-1.11-.29c-2.3,4.86-4.64,9.71-6.86,14.61-.42.92-1.24,2.73,1.29,1.73-.71.87-1.38,1.76-2.12,2.59-2.25,2.51-5.46,4.63-6.58,7.56a21.52,21.52,0,0,1-11.7,12.66,4.55,4.55,0,0,0-1,.63c-4.69,3.95-9.37,7.93-10.73,14.34-1.3,6.16,2.09,10.59,8.28,9.93,4.23-.45,8.32-2.22,13-3.55,5.52,8.05,13.05,12.55,23.13,9.13.6-1.48.73-3.19,1.56-3.67,8.24-4.74,13.14-13.82,10.64-22.68-1.88-6.65-4.55-13.46-8.54-19C694.61,403.72,690.29,398.12,682.71,399.85ZM572.24,414.21l-1.35-3.11c-2.58-5.89-7.25-7.06-11.93-2.71-2.3,2.14-4,4.9-6.15,7.26a4.5,4.5,0,0,1-2.7,1.52c-3,.16-7,5-6.64,8.79s2.43,5.08,6,3.29c1.44,4.8,2.94,9,9.34,8.51-3.08,7.75-1.42,14.6.78,21.36a8.58,8.58,0,0,0,2.39,3.39c4.53,4.18,9.26,2.54,13.48-.3,15.23-10.23,18.11-30.95,8.76-44.63C580.53,412.16,578.55,411.71,572.24,414.21ZM694.85,281.32c2.6-1,5.79-1.28,7.09-3,10.17-13.22,4.32-25.81-6.55-34-1.33-1-4.52-.71-6.2.19-3.26,1.76-5.38,10.48-4.08,14,1.32-.22,2.87-1,3.83-.54,2.86,1.35,5.61,10.55,4.42,13.79-2.82-6.56-5-7.82-11.06-5.26a23.1,23.1,0,0,0-8.28,5.92c-3.52,4.06-6.3,8.76-9.26,13,0-4.74.77-10.05-4.87-12.89-3.78-1.9-11.63-.93-14.47,1.69,3.27-.22,6.42-.58,9.57-.61,5.19-.06,7.53,2.15,7.83,7.39a48.11,48.11,0,0,1-.38,6.33c-.1,1.35-.24,2.69-.37,4l1.17.39c1.58-2.51,3-5.16,4.79-7.51,3.76-4.89,7.35-10,11.8-14.22a10.25,10.25,0,0,1,8.64-2c3.65,1.21,2.42,5.48,2.09,8.5-1.9,17.27-7.4,33.3-17.41,47.58-2.4,3.41-5.68,6.2-8.51,9.23,1.93.88,3.89-.34,5.13-2.28,5.05-7.92,10.15-15.82,14.69-24,1.59-2.86,2.65-2.9,4.63-1.08a19,19,0,0,1,6.35,12.49c.94,9.89-6,16.17-15.56,14.35-.15,0-.37.27-.78.59l4,3.28c-2.69,2-4.81,4.46-7.44,5.3-1.55.49-3.91-1.54-5.73-2.36.9,4.13,3.9,5.95,7.48,3.78,2.44-1.48,4.38-3.78,6.58-5.66,1.08-.92,2.28-1.69,3.35-2.61,2.56-2.18,5.8-4,7.47-6.7,4.72-7.73,2.23-18.29-5.36-24.19-2.15-1.67-2.55-3.12-1.83-5.7,1.68-6,2.94-12.11,4.33-18.18.32-1.42.47-2.87.7-4.31l.93.07C693.9,277.49,694.23,278.84,694.85,281.32Zm-80.26,7.25-.7-.23c0-.93,0-1.86,0-2.79,0-4.59-2.5-9-5.5-9.81-5.09-1.39-13.09,2.69-15.31,7.62-3.69,8.18,0,15.08,4,21.69,2,3.44,12.1,2.23,13.3-1.38C612,298.72,613.21,293.61,614.59,288.57Zm-43.5-74.64c8.67,9.73,12.52,20.6,9.42,33.7a15.59,15.59,0,0,0,2.27-4.84c.42-1.38.21-3.28,1.08-4.13,3-2.94,2.23-6.08.85-9.17a60.94,60.94,0,0,0-5.32-10.2c-3.84-5.5-8.14-10.67-12.7-16.57,9.67,5.94,17.26,12.66,19.42,24,1.31-4.94-.84-8.73-3.43-12.28-5.81-7.94-13.67-13.19-22.6-17.1-1.85-.81-3.34-2.47-5-3.73-.23-.6-1.19-.11-2.12-.15-5.27-.22-10.53-.75-15.81-.85-7.18-.13-13.58,2.53-19.19,6.75-4.05,3-7.84,6.64-7.63,12.37a138.79,138.79,0,0,0,1,14.13c2.34,16.61,9.53,31.09,20.07,44,1.54,1.88,3.77,3.21,5.68,4.79-2.11-3.82-5-6.72-7.45-9.9-10.41-13.38-15.39-28.91-17.71-45.45-1.94-13.83,11.68-26.87,25.09-24.11l-15.11,17.61.74.76a58.93,58.93,0,0,0,5.21-4.61c2.32-2.56,4.35-5.37,6.53-8,4.05-5,8.88-7.12,15.39-4.94,2.62.87,3.6,1.69,2.51,4.41-2.5,6.24-4.87,12.53-7.27,18.82a4.35,4.35,0,0,0-.07,1.31,6.28,6.28,0,0,0,2.63-3c2.1-5.41,4.21-10.81,6-16.31.89-2.71,1.92-3.89,4.79-2.37,3.43,1.83,14.08,13.07,15.7,16.91ZM678,292.59c.41-3.51-1.65-5.77-3.9-4.37s-5.12,3.2-6.47,5.53c-4.23,7.29-7.93,14.89-11.75,22.41-1.22,2.42-2.44,5.65.45,7,2.06,1,6,.88,7.65-.49,6.82-5.68,10.64-13.69,14.21-21.59C679.29,298.79,678.16,295.46,678,292.59ZM228.69,281.1c1.5-1.3,2.92-2.11,3.76-3.33,8.83-12.86,14.25-27.24,18.18-42.2.38-1.42-.84-4-2.11-4.86-1-.64-3.43.32-4.85,1.18a9.22,9.22,0,0,0-3,3.67c-1.88,3.65-3.46,7.45-5.33,11.1a44.82,44.82,0,0,1-3.45,5l2,3.32c.84-2,1.3-3.18,1.85-4.36,2.37-5,4.57-10.15,7.26-15,.8-1.46,3-2.16,4.51-3.2.3,1.79,1.18,3.72.78,5.34-1.09,4.5-2.85,8.83-4.08,13.3-.95,3.45-2.65,4.61-6.45,4.68-5.06.1-10.54.58-13.38,6-4.63-1.82-6.76-8.25-12.51-7.12,0-3.73.06-7.56,0-11.39-.07-3.24-1.88-5.39-5-5.71-2.44-.26-5,.49-6.8-2-.19-.25-2.11.43-2.89,1.08a12.39,12.39,0,0,0-2,2.92l-3-2.79-.82.54c1.16,3,3.39,6.06,3.17,8.94s-2.9,5.51-4.51,8.25l1.05.71,8.4-11.89-.41,3.34a4.17,4.17,0,0,0,2.56-2.72c.65-2.74,1.79-4.82,5-4.44s3.31,3.07,3.73,5.37a8.19,8.19,0,0,1-.17,3.55c-1.91,6.87-3.94,13.7-5.91,20.54-.23.81-.4,1.64-.6,2.46a9,9,0,0,0,3.37-3.76c1.61-3.05,3-6.22,4.76-9.18.46-.79,1.86-1,2.83-1.52.09,1.07.56,2.28.21,3.17-1.13,2.93-2.59,5.73-3.85,8.61-.53,1.19-.87,2.46-1.29,3.7l1.19.52c1.82-3.13,3.58-6.29,5.48-9.36a25.23,25.23,0,0,1,2.67-3.11,27.73,27.73,0,0,1,3.09,2.83,22.86,22.86,0,0,1,1.91,3.42c7.52-9.38,9.46-10.17,16.89-6.17Zm426.41-51,3-6.4-.72-.33-15.48,27a32.18,32.18,0,0,0-2.91-3.79c-6.11-5.55-13.26-7.79-21.35-5.89-14.84,3.48-29.64,7.16-44.45,10.79-1.16.29-2.28.77-3.42,1.17a15.72,15.72,0,0,0,6.82-.23c14.32-3.36,28.62-6.81,42.95-10.18,6.67-1.57,12.33.77,17.2,5.11.88.78,1,3,.73,4.36A38,38,0,0,1,635,258l1,.6,3.3-3c3.75,2,10.39-1.44,13-7.17l-7.59,5.31a102.81,102.81,0,0,1,7.9-16.1c3.33-5.42,7.33-10.43,10.75-15.8,5.91-9.3,11.68-18.72,13.87-29.75a26.73,26.73,0,0,0,0-5.22l-1.07.07C674.28,203.77,664.5,216.89,655.1,230.13ZM543.05,277c.94,4.31,1.76,8.29,2.68,12.25s1.89,7.66,2.85,11.5l1.42-.28a11.49,11.49,0,0,0,0-2.49c-1.35-5.94-2.59-11.91-4.22-17.77-1-3.51.55-4.88,3.58-4.95,5.69-.14,11.52-.67,17.06.29a21.82,21.82,0,0,1,10.55,5.62c6.58,6.25,7.55,14.58,6.7,23.22-.17,1.7-.3,3.4-.44,5.1l1.2.12a20,20,0,0,0,.64-3.19c.13-3.85.32-7.71.18-11.55-.39-10.64-8.89-20.3-19.42-21.45a73.45,73.45,0,0,0-17.09.07c-3.87.49-4.78-.85-5-4-.58-9-1.18-18-1.73-27-.11-1.68,0-3.37,0-5.05l-1.6.06c0,5.28-.19,10.58,0,15.85A102,102,0,0,0,542,269.16c.84,4.1-.4,5.77-4,7.61-7.52,3.89-14.71,9.27-14.16,18.57.54,9.12,3.36,18.11,5.2,27.15,0,.13.43.18,1.19.48-1.31-6-2.51-11.59-3.79-17.22C523.28,292,527,283,543.05,277ZM689.17,489c.53,0,.83-.16,1-.06.83.39,1.66.82,2.45,1.29,8.35,4.94,16.22,4,23.63-2a41.69,41.69,0,0,0,5.17-5,80.12,80.12,0,0,0,16.2-29c.33-1,1.24-2.88,1.52-2.81,3.08.73,2.25-1.77,2.28-2.91.16-6.33-.06-12.66.14-19,.5-15.15-7.43-24.91-20-31.73a13.29,13.29,0,0,0-3.34-.83,2.22,2.22,0,0,0,1.35,1.77c12.34,6.13,20,15.17,20.12,29.79a81.2,81.2,0,0,1-13,44.83c-4.14,6.55-9,12.54-16,16.27-6.29,3.32-18.31,1.48-21.73-4.57-2.17-3.85-2.15-9.18-2.23-13.87,0-2,2.22-4,3.18-5.58-5.44,1.29-5.79,1.56-5.36,7.26.31,4.22.88,8.43,1.59,12.61a58.16,58.16,0,0,0,2,6.85l.86-.17C689,491.11,689.1,490,689.17,489Zm33.38-141.9c1.13,1.46,3,1.37,4.57-.65a20.21,20.21,0,0,0,3.11-5.5c2-5.48,3.9-11,5.53-16.6.75-2.6,1.93-3.82,4.69-3.73,8,.26,15.13-2.59,21.94-6.28,5-2.68,9.41-6.09,12.34-11.1a8.81,8.81,0,0,0-2.42,1.73c-8.76,8.07-18.75,13.36-31,13.66-2.92.07-3.71-.85-3.5-4a196.12,196.12,0,0,0,.33-23.75c-.48-8.48-5.16-11.65-13.56-9.73-2.8.64-3.45-.36-4.56-2.62a73.33,73.33,0,0,0-6.74-10.52c-.61-.84-2.23-.95-2.65-1.11,2.37,3.5,5.66,6.84,7,10.84s.91,8.77,1.28,13.77c.63-1.61,1.18-3.07,1.78-4.5.43-1.05.67-2.43,1.47-3,5.39-4.06,13.37-1,13.88,5.68a198.53,198.53,0,0,1,.14,24.15c-.24,5-1.4,5.48-6.54,4.3-2.66-.61-5.26-1.49-7.89-2.25-.15.49-.3,1-.44,1.48,3.41,1,6.78,2.26,10.25,3.06,2.38.54,3.22,1.51,2.38,3.84-2.13,6-4,12.06-6.47,17.89C726.75,343.94,724.47,345.2,722.55,347.06ZM536,431.93l-.88-.35a11.2,11.2,0,0,0-.82,1.13c-10.32,17.89-23.72,33.18-39,47-16.39,14.8-35.62,24.95-55.52,33.91-6.79,3.06-14.16,4.84-21.22,7.33-.87.31-1.47,1.43-2.19,2.17l.56.9a25.34,25.34,0,0,0,3.27-.71A306.62,306.62,0,0,0,471.6,499.1a150.2,150.2,0,0,0,38.33-31.5c8.75-10.09,16.49-21.06,24.59-31.71C535.34,434.82,535.5,433.26,536,431.93ZM529.23,361c0-.44,0-.88,0-1.32-2.93-.22-6-.06-8.78-.71-24.74-5.65-47.63-14.93-67-32.07-9.13-8.07-17.55-16.51-24.33-26.6-5.91-8.8-11.81-17.61-17.78-26.37-1.18-1.74-2.64-3.3-4-4.94l-.77.63c.43.76.82,1.56,1.32,2.29,4.58,6.83,9.35,13.53,13.74,20.48,23.31,36.8,56.48,59.37,98.91,68.53C523.29,361.5,526.31,361,529.23,361ZM231.58,191.18c3,1.79,5.45.86,7.14-1.36a19.54,19.54,0,0,0,3.72-6.93c4.12-17.33,3.58-34.27-5.78-50-7.3-12.29-16.29-12.78-25.13-1.7-1.51,1.9-3.07,3.75-4.66,5.69-5.71-6.77-9.79-7.74-12.48-2.74,3.62-1.31,6.5-1.27,9.21,1.69,3.37,3.68-1.5,5.62-1.58,9.11l4.16-3.14,2.42,4.31c0-3.41-.57-5.83.15-7.79.78-2.14,2.68-3.9,4.21-5.74,8.62-10.38,16.15-9.61,22.81,2.29.19.35.36.71.54,1.07A63.81,63.81,0,0,1,242,176.17C240.87,182.53,240.57,189.83,231.58,191.18Zm459.06-33.49.51.48,4.52-8.5.93.42c-3.15,10.52-6.31,21-9.6,32,6-6,19.74-68.23,16.49-74.69ZM132.41,297.78l-1.82.29c4,4.13,1.14,5.14-1.68,5.86a25.08,25.08,0,0,1-6.65.95c-5.63-.11-7.61-2.68-7.11-8.33a38.89,38.89,0,0,0-.38-6.07l-1.47-.05a28.09,28.09,0,0,1-6.52,21.46c.36-5.32.65-9.68,1-14.76-3.58,2-6.07,3.13-8.19,4.74-.87.65-.91,2.37-1.63,4.48l8.41-6.3c-.78,5-1.38,8.74-2.09,13.21l-3.47-4c-.24,4.44,3,6.29,6,7.75,10.21,4.9,20.38,3.36,30.34-1a9.23,9.23,0,0,0,3.47-3.17c1.7-2.39.68-3.7-2.78-4.66,2.32,3.79.42,5.57-2,6.51a43.78,43.78,0,0,1-10.29,2.82c-6.13.73-12.39,1.31-18.12-2.48,2.11-3.86,4.1-7.54,6-11,.46-.06.61-.14.71-.09.84.38,1.69.74,2.5,1.18,5.31,2.87,10.58,2,15.63-.52a5.18,5.18,0,0,0,2.19-3.72C134.53,299.9,133.14,298.81,132.41,297.78Zm440.18-49c1.06-1.62,2.25-2.64,2.36-3.76.75-7.58-3.39-13.3-7.87-18.68-1-1.19-3.28-1.5-5-1.78-1.94-.3-4,.1-5.95-.16-14.71-2-27.06,13-25.53,27.74a21.89,21.89,0,0,0,1.38,4.32,16.06,16.06,0,0,0,.48-5.79,23.09,23.09,0,0,1,9.26-20.15c10.69-8.27,22.53-4.19,29,5.47,1,1.47,2.2,3.37-.75,4.41-8.56,3-11.75,12.39-11.45,19.55a11.6,11.6,0,0,0,.87,2.84,13.77,13.77,0,0,0,1-5.69c.26-5.44,2.24-10.15,6.81-13.28,1.29-.88,3.34-.66,5-.95C572.31,244.36,572.4,245.84,572.59,248.78ZM693.62,462l-1.27.72c1,2.39,2.07,4.78,3.08,7.18,3.36,7.89,6.72,8.81,13.62,3.68a21.57,21.57,0,0,0,2.41-2.07,62.85,62.85,0,0,0,14.9-22.85c3.68-9.86,3.68-19.65-.87-29.38a99.55,99.55,0,0,1-4.57-12.48c-1.29-4.12-3.87-6.47-7.14-6.33l6.38,8L716.74,410c.57,1.53,1,2.7,1.44,3.87-1.3-.34-2.61-.63-3.89-1a15.58,15.58,0,0,1-1.91-.87l-.77.82,4.78,5.67,4.23-3.84c.55.75.91,1.15,1.17,1.6,10.32,17.77,2.66,46.5-15.2,57-4.69,2.75-6.63,2.12-9-2.88C696.3,467.55,695,464.79,693.62,462Zm91,47.09c.1-13.35-.09-26.44-3.16-39.33a61.2,61.2,0,0,0-.73,13.15c.53,12.59,1.13,25.17,1.88,37.75.16,2.68-2.77,5.21-.24,8a30.52,30.52,0,0,1,2.49,3.59c1.07-1.24,2.86-2.36,3.07-3.74.78-4.94,1.1-10,1.45-15C789.6,510.42,788.44,508.39,784.61,509.11ZM318,161.09c-.39,1.28-.72,1.77-.64,2.2,1.38,7.41-2.24,12.75-7.13,17.63-2,2-3.76,4.13-5.71,6.12-14.77,15.08-32.4,24.73-53.37,27.94-4.69.72-9.42,1.14-14.13,1.7l.1,1.36c4.14-.22,8.32-.11,12.39-.71,28.23-4.16,50-19,67.16-41.19C320,171.83,319.92,166.92,318,161.09ZM191.1,485.68c4.48-2,5.9-5.94,7.06-9.78a67.41,67.41,0,0,0,2.78-26.75c-.31-3-.64-5.72,1.71-8.53,2.73-3.27,1.27-5.69-2.66-6.28-1.88-7.33-3.63-14.52-5.62-21.65-.37-1.32-1.65-2.38-2.52-3.56,1.08,5.17,2.69,9.77,3.67,14.5,1.07,5.16,1.29,10.49,2.34,15.65,2.63,13,2.12,25.82-2.38,38.37a30.59,30.59,0,0,1-2,3.84l-.72-.33c-.19-2-.39-4-.58-5.92l-1.06.1ZM547.2,334.85c-9.83,4.48-13.76,15-8.73,23.11,1.62,2.61,1.59,4.62.57,7.31-2.78,7.31-3.59,14.74.59,21.85a112.58,112.58,0,0,0,7.69,11.6c3.71,4.83,9.92,7.14,13.92,5.37a5,5,0,0,0,2.72-2.92c.15-.81-1.43-1.95-2.24-2.95.54,3.39-.24,4.82-3.15,4.55-2.05-.2-4.58-.57-6-1.86-8.06-7.6-15.3-16-13.42-28.1.79-5.09,3.46-9.9,5.34-14.81a39.24,39.24,0,0,1,1.81-3.61l-.86-.49L541,359.49c-1.15-3.12-2.52-5.44-2.8-7.88C537.37,344.15,542.19,339.44,547.2,334.85ZM193.68,357.39c3.61,5.89,8.15,6.25,12.22,1.52,1.66-1.93,3.2-2.73,5.19-.46a12.29,12.29,0,0,0,2.43,2.05c2.73,1.84,5.43,4.24,9,2.27s5-5.17,5.34-9.17c.67-8.9-1.87-17-5.71-24.85a17.37,17.37,0,0,0-2.42-3c.79,4.11,2.85,7.58,3.63,11.32A103.14,103.14,0,0,1,225.6,355c.11,4-3.27,6.86-6.12,6.51s-10.26-6.08-10.51-9c-.45-5.09-4.93-3.41-7.34-5.21.93,1.85,2.55,3.11,3.4,4.76a5.47,5.47,0,0,1,.28,4.41c-2,3.86-5.2,4.51-9,2.35C195.45,358.28,194.56,357.85,193.68,357.39Zm506.05-160.8-1.17-.22c-2,4.22-3.72,8.64-6.13,12.63-11,18.26-25.76,33.31-41.58,47.38-5.34,4.74-11,9.15-16.49,13.71a14.86,14.86,0,0,0,7.14-3.39c11.68-11,23.76-21.65,34.62-33.43,7.66-8.32,13.76-18.12,20.2-27.51C698.11,203.16,698.63,199.67,699.73,196.59ZM125.06,145.9l.72.49a58,58,0,0,0,3.78-5.87c4.68-9.54,5.37-19.87,5.78-30.25.33-8.55-2.09-16.27-8.54-21.9-5-4.4-11-7.79-16.55-11.56a8.27,8.27,0,0,0-2.52-.67c4,3,8.26,5.33,12.09,8.27,7.09,5.45,13,11.86,13.39,21.53a69.82,69.82,0,0,1-.1,10.92,107.92,107.92,0,0,1-2.8,16C129.09,137.38,126.85,141.58,125.06,145.9ZM168,342.78l-1.17-.17,3-34.19-1.08-.19c-.54,1.86-1.09,3.71-1.44,4.91-1.8-1.11-4.41-3.65-5.39-3.13-2.18,1.15-3.6,3.79-5.18,5.94-.4.55,0,1.61-.32,2.32-.52,1.3-1.26,2.51-2,3.86l-4-6.22c.55,4.2.91,7,1.38,10.64,2.72-3.6,8.28-4.17,6.93-10.33-.26-1.2,2-3,3.18-4.49,1.1,1.14,2.53,2.12,3.2,3.47a10.33,10.33,0,0,1,.82,4.64c-.07,7-.35,14-.41,21a29.57,29.57,0,0,0,.85,5.12l1.53.28,3.82-6.58-1-.58Zm366,36.15.24-1.35c-1.17-.23-2.33-.56-3.51-.69-12.88-1.42-25.84-2.39-38.64-4.33-14.19-2.14-27.63-6.57-38.46-16.72a10.31,10.31,0,0,0-1.61-1c5,7.29,12.29,11.21,20.21,14C492.17,375.86,512.9,378.46,533.93,378.93ZM284.21,319.45c-1.63.71-3.24,1.46-4.89,2.12-3.69,1.46-7.36,3-11.11,4.3-8.08,2.78-15.3,1.42-21.76-4.4a52.18,52.18,0,0,1-14.75-23.63c-.6-1.9-1.27-3.77-1.92-5.66-.92.8-1.09,1.4-1,1.94,2.16,9.76,6.32,18.54,13.32,25.77A29.11,29.11,0,0,0,284.21,319.45Zm-83.48-108.6-.42.85c1.47,2.84,3,5.63,4.38,8.52,1.62,3.48,2.87,7.14,4.64,10.54,1.5,2.87,3.87,4,6.82,1.66,1.37-15.06.55-29.82-4.71-44.09,2.55,14.18,5.13,28.31,1.52,42.93a10.71,10.71,0,0,1-3.49-4.16c-1.78-4-3.18-8.17-5.08-12.1C203.62,213.4,202,212.22,200.73,210.85Zm357.56,113-1.35.12a26.71,26.71,0,0,0,.34,5.16c.78,3.08,1,5.67-1.56,8.32-1.22,1.26-1.73,4-1.39,5.86,1.36,7.41,3.09,14.76,4.9,22.07a16,16,0,0,0,2.68,5.28c2.42,3.37,4.7,4,9,2.45-7.91-.95-9.79-6.6-11.26-12.53-1-4-1.83-8-2.74-12-2.21-9.66-.12-13.37,9.49-15.92,2.75-.73,5.75-.56,8.64-.81.76-.07,1.51-.17,2.26-.25-4.67-2.22-9.26-1.71-13.56.2-3.4,1.5-4.28-.07-4.72-2.85C558.74,327.22,558.53,325.52,558.29,323.82ZM74,255.16c1.18-.33,1.68-.43,2.14-.61,1.48-.6,2.95-1.24,4.42-1.86a27.81,27.81,0,0,1,.61,5.69c-.11,1.16-1.26,2.24-2,3.34l-2.91,4.54,4,2.79,6.31-2a13.17,13.17,0,0,0-.06-3.85A88.87,88.87,0,0,0,82.64,252c-.41-.94-2.43-1.2-3.74-1.71a1.17,1.17,0,0,0-.7.06c-.55-1.16-1-2.1-1.87-4ZM606.32,548.37l1.1.57q6.09-11.3,12.17-22.6a3.7,3.7,0,0,0,.61-1.86,5,5,0,0,0-.87-2.75c-.27-.3-1.7.2-2.43.63a6.87,6.87,0,0,0-2,1.91Q602.29,542.14,589.75,560c-.12.17.1.58.26,1.33,9.15-12.59,17-25.61,27.17-36.82l1.29.77ZM160.71,221.47c1.16-.82,3-2.26,5.07-3.49a2.86,2.86,0,0,1,2.45-.31,2.94,2.94,0,0,1,.68,2.42c-.64,4.24-3.79,7.21-8.2,8.5,1.72.35,4.27.76,4.91-.16A40,40,0,0,0,171,218.2c.73-2.24-1.32-3.51-3.8-3.11-.86.14-1.72.34-2.94.58.23-2.82.88-5.34.49-7.7a8.26,8.26,0,0,0-3.07-4.88c-.59-.43-2.86,1.38-4.31,2.26a7.62,7.62,0,0,0-1.36,1.47l-1.73-4.16a4.28,4.28,0,0,0-.84,3.31,47.41,47.41,0,0,0,2,4.89c1-1.23,2-2.53,3.11-3.67a26.32,26.32,0,0,1,2.84-2.26c.5,1.12,1.55,2.29,1.43,3.34C162.18,213.09,161.29,217.88,160.71,221.47ZM75.71,427l-.38,1c1.71.5,3.46,1.53,5.12,1.41,22.26-1.63,36.58-18.6,40.84-34.79.32-1.25-.12-2.7-.21-4.05C117,412.54,94.61,430,75.71,427Zm532.57,82.64,1.44.39c3.79-10.84,8.22-21.52,11.18-32.58,2.73-10.16,4-20.74,5.64-31.16.24-1.52-.65-3.22-1-4.83l-1.06.21C625.57,465.91,616.5,487.69,608.28,509.68Zm-91.12-73.26-.92-1.05c-5.58,4.18-11.12,8.41-16.74,12.52-4.8,3.51-9.72,6.88-14.55,10.35-1.65,1.18-2.66,2.85-.17,3.85,1.71.69,3.88.49,5.8.25.69-.09,1.61-1.42,1.69-2.26.06-.61-1.06-1.35-2.37-2.85,0,4-1.11,5-4.27,2.75C496.46,452.12,509,447,517.16,436.42ZM133.08,178.85c-1.72-2.33-2.73-3.65-3.68-5a69.12,69.12,0,0,0-4.36-6.13c-1.77-2-4.38-2.35-5.74.06-2.5,4.45-4.38,9.25-6.88,14.71,1.27-.84,2-1.07,2.27-1.56,1.68-3.12,3.2-6.32,4.9-9.43.59-1.1,1.56-2.85,2.28-2.81a5.39,5.39,0,0,1,3.35,2.17c1.6,2.1,2.7,4.57,4.31,6.66.88,1.13,2.51,2.57,3.58,2.41a4.47,4.47,0,0,0,2.92-3.19c.32-6.26.2-12.54.19-18.82a5.16,5.16,0,0,0-1-.22C133.77,164.24,136.44,171.24,133.08,178.85ZM61.17,303.16l2,6c1.93-.65,4.1-.94,5.75-2a19.37,19.37,0,0,0,8.42-11.66,18.52,18.52,0,0,0,.06-4.47l-1.13-.14c-.82,7.58-4.47,13.1-12.44,16,.67-3.11,1.34-6.23,2.21-10.31l-7.32,5.56-2.88-4.77-2.66,3.22C56.21,301.51,57.25,307.36,61.17,303.16Zm573.06,20.45c1.48-7,2.41-14.07,0-20.9-1.19-3.36-4.54-4.4-8-3.48-7.89,2.12-12.27,8-15.08,15.14-.88,2.27-1,4.85-1.44,7.28l1.07.18c.45-1.74.79-3.53,1.38-5.23,2.45-7,6.4-12.83,13.84-15.31,3.62-1.21,6.39.33,7.22,4a52.16,52.16,0,0,1,1,8.66C634.35,317.19,634.23,320.4,634.23,323.61ZM628.9,446.16l-.83.09a18.72,18.72,0,0,0,.82,3.55c2.3,5.2,4.14,10.72,7.23,15.41a34.86,34.86,0,0,0,10.27,10.15c6.53,4.05,13.71,3.71,20.57.06a11.53,11.53,0,0,0-3.75-.07c-3.53.29-7.17,1.24-10.57.7-7.33-1.15-12.22-6.12-15.56-12.42C634.07,458,631.6,452,628.9,446.16ZM128.7,279.3c1.2,0,2.4.34,2.73-.05,4.28-5.12,7.9-10.63,8.58-17.48a3.28,3.28,0,0,0-1.62-2.7,3.69,3.69,0,0,0-3.07,1.11,61.63,61.63,0,0,0-4.13,5.78l-.37-1.17c-1.81.35-3.65.62-5.43,1.11-.39.1-.56,1-1,1.75l4.25-.65c-.64,2.42-1.15,4.34-1.66,6.25l1,.6,8.82-12.69,1.3.84C137,268.42,134.07,274,128.7,279.3Zm294,82.35c.63,2.94.81,5.52,1.78,7.77.68,1.58,2.16,4.09,4.47,2.21,1.79-1.46,5.76-2.58,3-6.32a35.06,35.06,0,0,0-4.74-5.29,3.86,3.86,0,0,0-3.2-.53C423.29,359.7,423,361.09,422.69,361.65Zm18.43-63.11,1.15-.88c-1-2.1-3.37-4.75-2.77-6.17,1.38-3.29-.51-5-1.79-7.18-2.73-4.54-5.61-9-8.37-13.5-.81-1.32-1.43-2.76-2.13-4.15l-1.56.86,11.4,19.7-.53.29q-2.14-3.24-4.31-6.47l-1.26.87ZM55.73,212.15c-2.72,2-3.28,4.65-.68,6.82,2,1.71,1.76,3.23.49,4.69-2.1,2.41-4.54,4.52-7.12,7l1,2.41c6.75-3.89,8-12.25,14.85-15.82,2.49-1.28,2.37-3.85.79-5.57-2,5.56-2.73,6-5.67,3.94l-2.88,1.7ZM112.42,358.4c3.93,1.62,2.85,4,1.14,5.89a47.48,47.48,0,0,1-7.83,7.24c-3.24,2.26-5.52,1.11-6.31-2.76-.53-2.59-.55-5.29-1.21-7.84-.32-1.25-1.47-3-2.47-3.16s-2.38,1.28-3.58,2L92,361c3.93-1.7,4.65.09,4.78,3a27.18,27.18,0,0,0,1.15,6.64c.94,3.07,3.32,4.89,6.41,3.72a21.56,21.56,0,0,0,12.36-11.76C118.11,359.37,116.76,358,112.42,358.4Zm488.46,52.72c-1.49,4.8-2.77,9.19-4.21,13.53-.84,2.51-2.11,4.88-2.81,7.42a4.66,4.66,0,0,0,.76,3.56c.31.41,2.49.12,3.11-.53q6.16-6.39,11.94-13.15c.6-.7.36-2.14.5-3.23-3.81,6-7.81,11.26-14.6,15.57C596.84,425.66,603.29,419.36,600.88,411.12ZM528,337.85c-1.31-2-2.12-4.42-3.79-5.46-2.39-1.48-3.32.95-4.08,2.84-.07.17-.36.45-.4.42-2.38-1.36-3,.59-3,2,0,.71,1.61,1.46,2.47,2.21.6.52,1.1,1.34,1.78,1.54,1.43.42,3.25,1.13,4.36.59S527,339.57,528,337.85ZM600,375.6l-1.59.24c.56,2.67.73,5.5,1.78,8,1.51,3.54,5.05,4.65,8.13,2.28a55.93,55.93,0,0,0,9.09-9.17c1.44-1.78,1.76-4.11,5-4.08,1.23,0,2.48-2.22,3.71-3.43-.26-.54-.53-1.08-.8-1.62-2.16,4.89-4.75,3.35-7.4,1a11,11,0,0,0-.87,2.6c-.2,5.66-3.85,9.15-7.89,12.22s-6.89,1.87-8.06-3C600.63,378.92,600.31,377.25,600,375.6Zm152.8,66.32,9.07,49.65A147.17,147.17,0,0,0,752.76,441.92Zm2.39-61.29,1.08-.91a26.78,26.78,0,0,0-3.07-3.9c-2.85-2.5-5.82-4.88-8.89-7.11-.63-.47-1.87-.12-2.82-.15.07,1-.22,2.24.29,2.87C745.28,375.84,749.3,379.65,755.15,380.63ZM684.42,321.4c.8,3.67,3.27,5.57,5.23,5,1.53-.47,2.94-3.78,3-5.86,0-1.64-2.08-3.34-3.23-5ZM150,270.6c.25.44.59,1.88,1.42,2.27.63.29,2.27-.49,2.79-1.25a52.43,52.43,0,0,0,4.55-7.84c.82-1.79.12-3-2.27-2.74C153.42,261.43,150.12,265.8,150,270.6Zm28.56-160.92c-7.33,11.5-19.81,15.08-29,22.8a86.53,86.53,0,0,0,13.13-6.67,143.26,143.26,0,0,0,14-10.42c1.58-1.33,2.35-3.71,3.16-5.74.14-.34-1.31-1.74-2.18-1.92-.68-.15-1.59.83-2.4,1.31l.26.64ZM77.42,377.39c1.08,3,2.41,3.68,4,.92a55.33,55.33,0,0,0,2.7-6.15c1.37-3.23,3.24-3.81,6.36-2.4.9.41,2.24-.15,3.37-.26l0-1.7-7.45-1.88-2-6.58-1,.33C84.2,368.61,81.74,376.3,77.42,377.39Zm401.24-17.86.52-.88-31.94-17.29C456.56,349.48,467.3,355.06,478.66,359.53ZM118.74,124.67l1.33.62c1.41-3.7,3-7.36,4.18-11.13,1.76-5.54,2.46-11.22-.33-16.61-.92-1.78-2.89-3-4.39-4.51l-.81.82C124.8,99.49,126.18,104.72,118.74,124.67Zm672,310.42,1.23-.39q-.82-2.28-1.64-4.57c-.26-.76-.93-1.71-.69-2.26,1.44-3.4.07-7.48-3.59-10.06C784.39,421.13,787.49,432.55,790.69,435.09Zm3.69-19.17c.46-6.48-16.08-28.61-22.82-30.33C781.4,394.14,788.12,404.86,794.38,415.92ZM149.57,366.16l-7.34,3.76-2.89-8.51-4.39.48,1,3.06L132.54,366a11.24,11.24,0,0,0,4,1.61A10,10,0,0,1,139,369c1.61,1.08,3.31,3.28,4.74,3.11C146.8,371.69,149,369.44,149.57,366.16ZM648.2,406.37l-1.51-.34c-.77,4.74-1.74,9.45-2.19,14.22-.17,1.7.93,3.52,1.45,5.29,1.59-1,3.59-1.64,4.69-3,3.05-3.82,2.43-5.67-1.74-8.58-.82-.57-1.14-2.22-1.22-3.4A21.53,21.53,0,0,1,648.2,406.37ZM691.81,234.1l-25.28,26.56.7.67A134.16,134.16,0,0,0,691.81,234.1ZM611.52,339.79l-1.56.52c-2.22-4.41-4.63-8.74-6.61-13.27-1.47-3.38-.52-6.1,4-7-4.23-.87-5.94.21-6,3.86-.1,7.11,3.48,12.62,8.43,17.29.68.64,2.49.09,3.77.1-.24-1.29-.49-2.57-.74-3.86l-1.1.24C611.69,338.37,611.61,339.08,611.52,339.79ZM646.68,390c-1-2.9-.35-5.79-4-5.75-2.88,0-3.27,2.43-2.76,4.16s2.27,3.29,3.47,4.91ZM448.52,268.62c-3.06,7.63-2.84,10.16,1.23,13.67.37-2.15.12-4.37,1.09-5.72C453.52,272.84,450.57,271.32,448.52,268.62ZM587.84,528.3c6-.82,17.42-18,16.12-24.2C599.75,513.29,595.71,522.07,587.84,528.3Zm-29,44.06c2.61,1.13,4.43,2.37,4.83,2,3-2.62,5.66-5.57,8.43-8.41l-1.23-1.47ZM644.8,360.75a27,27,0,0,1,2.14,3c.44.9,1.11,2,.89,2.84-.91,3.41-9.79,8.44-13.16,7.66.71,2.91,2,3.64,4.52,2a92.8,92.8,0,0,0,8.5-6.55C651.65,366.35,651,363.64,644.8,360.75ZM520.46,209.61c-5.6,4.14-6.78,22.12-1.78,26.11C517,226.78,516.1,218.05,520.46,209.61ZM178,293.05c3.42,10.43,1.06,20.7-.76,31C180.59,313.82,182.81,303.57,178,293.05ZM768.1,538.66l1.9.16,1.12-13.6C763,529,770,534.28,768.1,538.66Zm-695.25-166,1.48.73A48.53,48.53,0,0,0,76.85,367c.12-.49-1.51-1.78-2.52-2.1a32.5,32.5,0,0,0-5.59-.78V368l6.32-.65C74.25,369.3,73.55,371,72.85,372.69ZM146,90.46c1.23,2.54,2.78,4.82,3.44,7.33.7,2.7.57,5.62.82,8.75C153.9,100.24,151,90.72,146,90.46ZM112.57,242.64l4.77,3.23,2.73-5.43c-4.4.68-8.26-1.65-11.8,2.92ZM682.81,151l-.79-.1c-1.19,1.7-3.22,3.36-3.32,5.12-.09,1.58,1.94,3.28,3,4.93l1.08-.53ZM598.38,327.56c-6.42-1.28-9.6,2.24-11.57,12.24C592,336.87,589.82,327.27,598.38,327.56ZM603.63,554l-1.19-.7q-5,7.27-9.92,14.54l1.23.82ZM77.71,420.17c5.09,2.72,10.43,1.32,14.41-3.66ZM259.46,307.75a10,10,0,0,0,15.29.88C269.42,309.84,264.26,311.93,259.46,307.75Zm250,91.53c1.49-6.08-.69-12.41-3.66-13.58C507,390.14,508.18,394.71,509.41,399.28Zm272,155c3.68-5.21,2.52-11.25,2.53-17.14Q782.72,545.7,781.45,554.26Zm6.7-167.38.77-.77c-3.43-4.12-7-8-12.52-9.76ZM285.94,290.43,275,296.89C279.72,297.62,285.09,294.31,285.94,290.43Zm237.33,18.23c-4.12,2.42-7.6,9-6.91,12.25ZM721.42,436.33c1.8-4.26,2.61-8,0-12.08ZM20.76,384.14c.24,1.49.1,4,.76,4.2,2.1.74,4.49.65,6.76.88l.11-1Zm616.6-105.66,1-.21c-1.05-1.71-1.81-3.72-3.24-5-.85-.76-2.73-.36-4.34-.5Zm-89.85-25.35-1.41.2,1.53,12.4,1.18-.16Q548.15,259.35,547.51,253.13ZM424.1,518.94l-.26-2.07-8.47,1.25c.08.57.15,1.14.22,1.71Zm287-143.13-.85,1.26,8.53,6.16.78-1.1ZM136.58,289.63,127.92,293C132.45,294,135,292.9,136.58,289.63Z" class="cls-1" transform="translate(-16.76 -75.61)"/><path d="M17,400.1c1.93-2,4-3.33,7.27-2-1.73,3.19-3.94,4.35-7.27,2.77Z" class="cls-1" transform="translate(-16.76 -75.61)"/><path d="M682.71,399.85c7.58-1.73,11.9,3.87,15.25,8.5,4,5.54,6.66,12.35,8.54,19,2.5,8.86-2.4,17.94-10.64,22.68-.83.48-1,2.19-1.56,3.67-10.08,3.42-17.61-1.08-23.13-9.13-4.66,1.33-8.75,3.1-13,3.55-6.19.66-9.58-3.77-8.28-9.93,1.36-6.41,6-10.39,10.73-14.34a4.55,4.55,0,0,1,1-.63,21.52,21.52,0,0,0,11.7-12.66c1.12-2.93,4.33-5.05,6.58-7.56.74-.83,1.41-1.72,2.12-2.59ZM665,426.73l-1.17-.82Q658,434,652.18,442.15l.88.62Zm-1,14.13L655.13,446C659.7,447.23,662.16,445.12,664.06,440.86Zm5.72-1.65-1.06-.78-4.4,5.84,1.19.86Zm34.83-12.35-1.27,0q.42,4.07.85,8.12h.42Zm-10.07-15.24c-1.14-4.77-1.17-4.79-4.83-2.8Z" class="cls-1" transform="translate(-16.76 -75.61)"/><path d="M572.24,414.21c6.31-2.5,8.29-2,12,3.37,9.35,13.68,6.47,34.4-8.76,44.63-4.22,2.84-9,4.48-13.48.3a8.58,8.58,0,0,1-2.39-3.39c-2.2-6.76-3.86-13.61-.78-21.36-6.4.51-7.9-3.71-9.34-8.51-3.59,1.79-5.69.36-6-3.29s3.6-8.63,6.64-8.79a4.5,4.5,0,0,0,2.7-1.52c2.12-2.36,3.85-5.12,6.15-7.26,4.68-4.35,9.35-3.18,11.93,2.71ZM581.85,426c-2.12,4.26-1.79,5.46,1.29,6.62C582.75,430.65,582.4,428.8,581.85,426Z" class="cls-1" transform="translate(-16.76 -75.61)"/><path d="M596.13,464c4-3.87,8.27-7.5,11.9-11.69a147.62,147.62,0,0,0,11.16-14.91c1-1.57.79-4,1.17-6.33,2.73,1.18,2.17,3.86,1,5.84A72.81,72.81,0,0,1,614,447.64c-3,3.66-6.71,6.8-9.9,10.36a8.59,8.59,0,0,0-2.11,4.44c-1.32,11.17-6.86,20.25-14.18,28.32-3.05,3.38-7,6-10.35,9.06-9.8,8.86-22.57,10.63-34.47,14.37-4.3,1.36-9,1.57-13.54,2s-7.53-2.64-10.07-6c-1.48-2-2.88-4-4.52-6.3-1.36,6.76,1.67,9.89,13.53,14.59-4.9,1.84-11.11-1.65-14.48-7.15-4.66-7.59-3.36-14.81.74-21.75,5.24-8.9,11-17.49,16.25-25.77l-3.79,2.71-.87-1.06,12.29-10.4c-.81-1.79-2.4-4-2.69-6.41-.21-1.77,1.27-3.74,2-5.62l1.15.4a19,19,0,0,1-1,3.48c-1.17,2.35-.63,4.49,1.49,5.45a19.69,19.69,0,0,0,6.92,1.24c1.38.07,2.8-.58,4.2-.91,1.29,2.31.81,3.68-2,4.07-1.12.16-2.65.36-3.18,1.12-3.63,5.17-6.85,10.59-7.42,17.21l4-6.84c.38.93.6,1.21.54,1.38a11.69,11.69,0,0,1-1,2.55c-4.1,6.23-3.18,11.91,1.72,17.23a3.21,3.21,0,0,1,1,1.65c0,.49-.55,1.05-.86,1.57l-5.7-8.12c.17,4,2.69,6.26,5.75,8.07,3.24,2.44,6.68,4.23,10.94,3.75,14.33-1.61,25.09-8.53,31.89-21.34.5-1,.56-2.13,1.09-4.27-2.91,1.47-4.82,2.55-6.81,3.43-5.42,2.39-10.65,5.21-17,4.56-4.06-.41-6.76-2.3-8.21-5.87a47.67,47.67,0,0,1-1.87-7.28c-1-4.27-2-8.54-3-12.82.69-1.9,1.37-3.8,2.53-7,.43,2.64.74,4.25,1,5.88.79,6,1.19,12.13,2.39,18.07s4.17,7.28,10.08,7c8.78-.47,15.79-5,23-9.26,2.15-1.28,4.45-2.32,6.68-3.48a14.14,14.14,0,0,1-1.76,1.62c-3.16,2.12-5.52,4.57-6,8.75-.29,2.73-1.1,6-2.87,7.86-5.94,6.35-13,11.52-21.33,14.22-7.24,2.34-14.62,4.5-21.52-1.6-3.49-3.08-7.69-5.52-8.47-10.5-.31-2,.72-4.12,1-6.2a38.81,38.81,0,0,1,7-18.37,24.92,24.92,0,0,0,1.49-2.8l-1-1c-1.59,1.17-3.45,2.1-4.72,3.55-3.15,3.59-6.18,7.3-9,11.15-5.82,8-11.11,16.24-13.56,25.95a8,8,0,0,0,.21,5.24,36.19,36.19,0,0,0,5.65,7.66c1.8,1.9,4.17,3.25,6.91,5.32l-2.67-7c3.61,4.45,6.84,6.08,11.3,5.64,11.29-1.13,21.28-6.3,31.42-10.6,5.67-2.4,10.9-6.92,15.06-11.61,5.66-6.39,10.26-13.77,15-20.93,1.22-1.86,1.23-4.52,2-7.65Z" class="cls-1" transform="translate(-16.76 -75.61)"/><path d="M694.85,281.32c-.62-2.48-1-3.83-1.28-5.19l-.93-.07c-.23,1.44-.38,2.89-.7,4.31-1.39,6.07-2.65,12.18-4.33,18.18-.72,2.58-.32,4,1.83,5.7,7.59,5.9,10.08,16.46,5.36,24.19-1.67,2.74-4.91,4.52-7.47,6.7-1.07.92-2.27,1.69-3.35,2.61-2.2,1.88-4.14,4.18-6.58,5.66-3.58,2.17-6.58.35-7.48-3.78,1.82.82,4.18,2.85,5.73,2.36,2.63-.84,4.75-3.28,7.44-5.3l-4-3.28c.41-.32.63-.62.78-.59,9.58,1.82,16.5-4.46,15.56-14.35A19,19,0,0,0,689.09,306c-2-1.82-3-1.78-4.63,1.08-4.54,8.2-9.64,16.1-14.69,24-1.24,1.94-3.2,3.16-5.13,2.28,2.83-3,6.11-5.82,8.51-9.23,10-14.28,15.51-30.31,17.41-47.58.33-3,1.56-7.29-2.09-8.5a10.25,10.25,0,0,0-8.64,2c-4.45,4.21-8,9.33-11.8,14.22-1.8,2.35-3.21,5-4.79,7.51l-1.17-.39c.13-1.35.27-2.69.37-4a48.11,48.11,0,0,0,.38-6.33c-.3-5.24-2.64-7.45-7.83-7.39-3.15,0-6.3.39-9.57.61,2.84-2.62,10.69-3.59,14.47-1.69,5.64,2.84,4.86,8.15,4.87,12.89,3-4.25,5.74-8.95,9.26-13a23.1,23.1,0,0,1,8.28-5.92c6.11-2.56,8.24-1.3,11.06,5.26,1.19-3.24-1.56-12.44-4.42-13.79-1-.46-2.51.32-3.83.54-1.3-3.52.82-12.24,4.08-14,1.68-.9,4.87-1.19,6.2-.19,10.87,8.21,16.72,20.8,6.55,34C700.64,280,697.45,280.29,694.85,281.32ZM698,262l.6-.06c-1.21-4.12-2.47-8.24-3.61-12.38a15.12,15.12,0,0,1,0-3.25l-5.1,2C692.77,253.26,695.36,257.63,698,262Zm.4-10.69-1,.31q2.8,9.48,5.6,19l1-.29Q701.14,260.81,698.36,251.31Z" class="cls-1" transform="translate(-16.76 -75.61)"/><path d="M614.59,288.57c-1.38,5-2.57,10.15-4.22,15.1-1.2,3.61-11.25,4.82-13.3,1.38-3.94-6.61-7.68-13.51-4-21.69,2.22-4.93,10.22-9,15.31-7.62,3,.83,5.47,5.22,5.5,9.81,0,.93,0,1.86,0,2.79Z" class="cls-1" transform="translate(-16.76 -75.61)"/><path d="M571.09,213.93l3,1.75c-1.62-3.84-12.27-15.08-15.7-16.91-2.87-1.52-3.9-.34-4.79,2.37-1.83,5.5-3.94,10.9-6,16.31a6.28,6.28,0,0,1-2.63,3,4.35,4.35,0,0,1,.07-1.31c2.4-6.29,4.77-12.58,7.27-18.82,1.09-2.72.11-3.54-2.51-4.41-6.51-2.18-11.34,0-15.39,4.94-2.18,2.67-4.21,5.48-6.53,8a58.93,58.93,0,0,1-5.21,4.61l-.74-.76,15.11-17.61c-13.41-2.76-27,10.28-25.09,24.11,2.32,16.54,7.3,32.07,17.71,45.45,2.48,3.18,5.34,6.08,7.45,9.9-1.91-1.58-4.14-2.91-5.68-4.79-10.54-12.87-17.73-27.35-20.07-44a138.79,138.79,0,0,1-1-14.13c-.21-5.73,3.58-9.33,7.63-12.37,5.61-4.22,12-6.88,19.19-6.75,5.28.1,10.54.63,15.81.85.93,0,1.89-.45,2.12.15,1.65,1.26,3.14,2.92,5,3.73,8.93,3.91,16.79,9.16,22.6,17.1,2.59,3.55,4.74,7.34,3.43,12.28-2.16-11.32-9.75-18-19.42-24,4.56,5.9,8.86,11.07,12.7,16.57a60.94,60.94,0,0,1,5.32,10.2c1.38,3.09,2.17,6.23-.85,9.17-.87.85-.66,2.75-1.08,4.13a15.59,15.59,0,0,1-2.27,4.84C583.61,234.53,579.76,223.66,571.09,213.93Z" class="cls-1" transform="translate(-16.76 -75.61)"/><path d="M678,292.59c.12,2.87,1.25,6.2.19,8.54C674.66,309,670.84,317,664,322.72c-1.65,1.37-5.59,1.49-7.65.49-2.89-1.4-1.67-4.63-.45-7,3.82-7.52,7.52-15.12,11.75-22.41,1.35-2.33,4.07-4,6.47-5.53S678.45,289.08,678,292.59Z" class="cls-1" transform="translate(-16.76 -75.61)"/><path d="M228.69,281.1,241,260.48c-7.43-4-9.37-3.21-16.89,6.17a22.86,22.86,0,0,0-1.91-3.42,27.73,27.73,0,0,0-3.09-2.83,25.23,25.23,0,0,0-2.67,3.11c-1.9,3.07-3.66,6.23-5.48,9.36l-1.19-.52c.42-1.24.76-2.51,1.29-3.7,1.26-2.88,2.72-5.68,3.85-8.61.35-.89-.12-2.1-.21-3.17-1,.49-2.37.73-2.83,1.52-1.75,3-3.15,6.13-4.76,9.18a9,9,0,0,1-3.37,3.76c.2-.82.37-1.65.6-2.46,2-6.84,4-13.67,5.91-20.54a8.19,8.19,0,0,0,.17-3.55c-.42-2.3-.57-5-3.73-5.37s-4.37,1.7-5,4.44a4.17,4.17,0,0,1-2.56,2.72l.41-3.34-8.4,11.89-1.05-.71c1.61-2.74,4.3-5.4,4.51-8.25s-2-5.95-3.17-8.94l.82-.54,3,2.79a12.39,12.39,0,0,1,2-2.92c.78-.65,2.7-1.33,2.89-1.08,1.84,2.48,4.36,1.73,6.8,2,3.13.32,4.94,2.47,5,5.71.08,3.83,0,7.66,0,11.39,5.75-1.13,7.88,5.3,12.51,7.12,2.84-5.41,8.32-5.89,13.38-6,3.8-.07,5.5-1.23,6.45-4.68,1.23-4.47,3-8.8,4.08-13.3.4-1.62-.48-3.55-.78-5.34-1.54,1-3.71,1.74-4.51,3.2-2.69,4.85-4.89,10-7.26,15-.55,1.18-1,2.39-1.85,4.36l-2-3.32a44.82,44.82,0,0,0,3.45-5c1.87-3.65,3.45-7.45,5.33-11.1a9.22,9.22,0,0,1,3-3.67c1.42-.86,3.86-1.82,4.85-1.18,1.27.82,2.49,3.44,2.11,4.86-3.93,15-9.35,29.34-18.18,42.2C231.61,279,230.19,279.8,228.69,281.1Z" class="cls-1" transform="translate(-16.76 -75.61)"/><path d="M655.1,230.13c9.4-13.24,19.18-26.36,21.08-43.22l1.07-.07a26.73,26.73,0,0,1,0,5.22c-2.19,11-8,20.45-13.87,29.75-3.42,5.37-7.42,10.38-10.75,15.8a102.81,102.81,0,0,0-7.9,16.1l7.59-5.31c-2.64,5.73-9.28,9.21-13,7.17l-3.3,3-1-.6a38,38,0,0,0,2.52-6.21c.3-1.37.15-3.58-.73-4.36-4.87-4.34-10.53-6.68-17.2-5.11-14.33,3.37-28.63,6.82-42.95,10.18a15.72,15.72,0,0,1-6.82.23c1.14-.4,2.26-.88,3.42-1.17,14.81-3.63,29.61-7.31,44.45-10.79,8.09-1.9,15.24.34,21.35,5.89a32.18,32.18,0,0,1,2.91,3.79l15.48-27,.72.33Z" class="cls-1" transform="translate(-16.76 -75.61)"/><path d="M543.05,277c-16.08,6-19.77,15-16.62,28.78,1.28,5.63,2.48,11.27,3.79,17.22-.76-.3-1.16-.35-1.19-.48-1.84-9-4.66-18-5.2-27.15-.55-9.3,6.64-14.68,14.16-18.57,3.56-1.84,4.8-3.51,4-7.61a102,102,0,0,1-1.52-15.84c-.24-5.27,0-10.57,0-15.85l1.6-.06c0,1.68-.09,3.37,0,5.05.55,9,1.15,18,1.73,27,.2,3.16,1.11,4.5,5,4a73.45,73.45,0,0,1,17.09-.07c10.53,1.15,19,10.81,19.42,21.45.14,3.84-.05,7.7-.18,11.55a20,20,0,0,1-.64,3.19l-1.2-.12c.14-1.7.27-3.4.44-5.1.85-8.64-.12-17-6.7-23.22a21.82,21.82,0,0,0-10.55-5.62c-5.54-1-11.37-.43-17.06-.29-3,.07-4.55,1.44-3.58,4.95C547.38,286,548.62,292,550,298a11.49,11.49,0,0,1,0,2.49l-1.42.28c-1-3.84-2-7.66-2.85-11.5S544,281.28,543.05,277Z" class="cls-1" transform="translate(-16.76 -75.61)"/><path d="M682,400.41c-2.53,1-1.71-.81-1.29-1.73,2.22-4.9,4.56-9.75,6.86-14.61l1.11.29c-.46,1.77-.92,3.55-1.55,6,7.92-12.43,14.32-24.84,17.59-38.62.44-1.88-.67-4.12-1.06-6.19-2,.73-4.53.93-5.88,2.29-3.86,3.88-8.35,7.58-8.42,13.86,0,.39-.55.77-.93,1.26-2.61-6.69-1-6.24-8.23-5l1.42-5.73a9.08,9.08,0,0,0,11.5-2.11,30.47,30.47,0,0,1,6.33-5.9c3.94-2.51,8-.34,7.55,4.22-.35,4,1.47,6.32,4.09,8.78,10.77,10.11,21,20.7,28.56,33.55a19.87,19.87,0,0,1,2.32,5.43c-9.37-15.54-21.74-28.35-35.91-40.95-6,16.3-13.11,31.32-23.39,44.61Z" class="cls-1" transform="translate(-16.76 -75.61)"/><path d="M689.17,489c-.07,1.06-.14,2.15-.22,3.24l-.86.17a58.16,58.16,0,0,1-2-6.85c-.71-4.18-1.28-8.39-1.59-12.61-.43-5.7-.08-6,5.36-7.26-1,1.59-3.21,3.61-3.18,5.58.08,4.69.06,10,2.23,13.87,3.42,6,15.44,7.89,21.73,4.57,7.06-3.73,11.91-9.72,16-16.27a81.2,81.2,0,0,0,13-44.83c-.09-14.62-7.78-23.66-20.12-29.79a2.22,2.22,0,0,1-1.35-1.77,13.29,13.29,0,0,1,3.34.83c12.61,6.82,20.54,16.58,20,31.73-.2,6.33,0,12.66-.14,19,0,1.14.8,3.64-2.28,2.91-.28-.07-1.19,1.77-1.52,2.81a80.12,80.12,0,0,1-16.2,29,41.69,41.69,0,0,1-5.17,5c-7.41,5.94-15.28,6.91-23.63,2-.79-.47-1.62-.9-2.45-1.29C690,488.8,689.7,488.92,689.17,489Z" class="cls-1" transform="translate(-16.76 -75.61)"/><path d="M722.55,347.06c1.92-1.86,4.2-3.12,5-5,2.46-5.83,4.34-11.92,6.47-17.89.84-2.33,0-3.3-2.38-3.84-3.47-.8-6.84-2-10.25-3.06.14-.49.29-1,.44-1.48,2.63.76,5.23,1.64,7.89,2.25,5.14,1.18,6.3.72,6.54-4.3a198.53,198.53,0,0,0-.14-24.15c-.51-6.7-8.49-9.74-13.88-5.68-.8.61-1,2-1.47,3-.6,1.43-1.15,2.89-1.78,4.5-.37-5,.12-9.71-1.28-13.77s-4.66-7.34-7-10.84c.42.16,2,.27,2.65,1.11a73.33,73.33,0,0,1,6.74,10.52c1.11,2.26,1.76,3.26,4.56,2.62,8.4-1.92,13.08,1.25,13.56,9.73a196.12,196.12,0,0,1-.33,23.75c-.21,3.18.58,4.1,3.5,4,12.21-.3,22.2-5.59,31-13.66a8.81,8.81,0,0,1,2.42-1.73c-2.93,5-7.39,8.42-12.34,11.1-6.81,3.69-14,6.54-21.94,6.28-2.76-.09-3.94,1.13-4.69,3.73-1.63,5.6-3.53,11.12-5.53,16.6a20.21,20.21,0,0,1-3.11,5.5C725.54,348.43,723.68,348.52,722.55,347.06Z" class="cls-1" transform="translate(-16.76 -75.61)"/><path d="M536,431.93c-.46,1.33-.62,2.89-1.44,4-8.1,10.65-15.84,21.62-24.59,31.71a150.2,150.2,0,0,1-38.33,31.5,306.62,306.62,0,0,1-51.44,24.19,25.34,25.34,0,0,1-3.27.71l-.56-.9c.72-.74,1.32-1.86,2.19-2.17,7.06-2.49,14.43-4.27,21.22-7.33,19.9-9,39.13-19.11,55.52-33.91,15.28-13.8,28.68-29.09,39-47a11.2,11.2,0,0,1,.82-1.13Z" class="cls-1" transform="translate(-16.76 -75.61)"/><path d="M529.23,361c-2.92,0-5.94.52-8.72-.08-42.43-9.16-75.6-31.73-98.91-68.53-4.39-6.95-9.16-13.65-13.74-20.48-.5-.73-.89-1.53-1.32-2.29l.77-.63c1.33,1.64,2.79,3.2,4,4.94,6,8.76,11.87,17.57,17.78,26.37,6.78,10.09,15.2,18.53,24.33,26.6,19.39,17.14,42.28,26.42,67,32.07,2.83.65,5.85.49,8.78.71C529.2,360.1,529.21,360.54,529.23,361Z" class="cls-1" transform="translate(-16.76 -75.61)"/><path d="M231.58,191.18c9-1.35,9.29-8.65,10.38-15a63.81,63.81,0,0,0-5.65-40.25c-.18-.36-.35-.72-.54-1.07-6.66-11.9-14.19-12.67-22.81-2.29-1.53,1.84-3.43,3.6-4.21,5.74-.72,2-.15,4.38-.15,7.79l-2.42-4.31L202,144.92c.08-3.49,4.95-5.43,1.58-9.11-2.71-3-5.59-3-9.21-1.69,2.69-5,6.77-4,12.48,2.74,1.59-1.94,3.15-3.79,4.66-5.69,8.84-11.08,17.83-10.59,25.13,1.7,9.36,15.75,9.9,32.69,5.78,50a19.54,19.54,0,0,1-3.72,6.93C237,192,234.58,193,231.58,191.18Z" class="cls-1" transform="translate(-16.76 -75.61)"/><path d="M690.64,157.69l12.85-50.31C706.74,113.84,693,176,687,182.07c3.29-10.94,6.45-21.46,9.6-32l-.93-.42-4.52,8.5Z" class="cls-1" transform="translate(-16.76 -75.61)"/><path d="M132.41,297.78c.73,1,2.12,2.12,2,3.07a5.18,5.18,0,0,1-2.19,3.72c-5.05,2.47-10.32,3.39-15.63.52-.81-.44-1.66-.8-2.5-1.18-.1-.05-.25,0-.71.09-1.9,3.49-3.89,7.17-6,11,5.73,3.79,12,3.21,18.12,2.48a43.78,43.78,0,0,0,10.29-2.82c2.44-.94,4.34-2.72,2-6.51,3.46,1,4.48,2.27,2.78,4.66a9.23,9.23,0,0,1-3.47,3.17c-10,4.34-20.13,5.88-30.34,1-3-1.46-6.23-3.31-6-7.75l3.47,4c.71-4.47,1.31-8.25,2.09-13.21L98,306.35c.72-2.11.76-3.83,1.63-4.48,2.12-1.61,4.61-2.73,8.19-4.74-.35,5.08-.64,9.44-1,14.76a28.09,28.09,0,0,0,6.52-21.46l1.47.05a38.89,38.89,0,0,1,.38,6.07c-.5,5.65,1.48,8.22,7.11,8.33a25.08,25.08,0,0,0,6.65-.95c2.82-.72,5.67-1.73,1.68-5.86Z" class="cls-1" transform="translate(-16.76 -75.61)"/><path d="M572.59,248.78c-.19-2.94-.28-4.42-.38-5.91-1.7.29-3.75.07-5,.95-4.57,3.13-6.55,7.84-6.81,13.28a13.77,13.77,0,0,1-1,5.69,11.6,11.6,0,0,1-.87-2.84c-.3-7.16,2.89-16.52,11.45-19.55,2.95-1,1.74-2.94.75-4.41-6.51-9.66-18.35-13.74-29-5.47a23.09,23.09,0,0,0-9.26,20.15,16.06,16.06,0,0,1-.48,5.79,21.89,21.89,0,0,1-1.38-4.32c-1.53-14.71,10.82-29.69,25.53-27.74,2,.26,4-.14,5.95.16,1.76.28,4.05.59,5,1.78,4.48,5.38,8.62,11.1,7.87,18.68C574.84,246.14,573.65,247.16,572.59,248.78Z" class="cls-1" transform="translate(-16.76 -75.61)"/><path d="M693.62,462c1.33,2.77,2.68,5.53,4,8.3,2.36,5,4.3,5.63,9,2.88,17.86-10.46,25.52-39.19,15.2-57-.26-.45-.62-.85-1.17-1.6l-4.23,3.84-4.78-5.67.77-.82a15.58,15.58,0,0,0,1.91.87c1.28.4,2.59.69,3.89,1-.43-1.17-.87-2.34-1.44-3.87l3.42-1.55-6.38-8c3.27-.14,5.85,2.21,7.14,6.33a99.55,99.55,0,0,0,4.57,12.48c4.55,9.73,4.55,19.52.87,29.38a62.85,62.85,0,0,1-14.9,22.85,21.57,21.57,0,0,1-2.41,2.07c-6.9,5.13-10.26,4.21-13.62-3.68-1-2.4-2-4.79-3.08-7.18Z" class="cls-1" transform="translate(-16.76 -75.61)"/><path d="M784.61,509.11c3.83-.72,5,1.31,4.76,4.44-.35,5-.67,10-1.45,15-.21,1.38-2,2.5-3.07,3.74a30.52,30.52,0,0,0-2.49-3.59c-2.53-2.77.4-5.3.24-8-.75-12.58-1.35-25.16-1.88-37.75a61.2,61.2,0,0,1,.73-13.15C784.52,482.67,784.71,495.76,784.61,509.11Zm.79,20.19c1.83-5.75,3.81-11.51,1-17.5C783.07,517.43,786,523.48,785.4,529.3Z" class="cls-1" transform="translate(-16.76 -75.61)"/><path d="M420.35,323l-24-39.23-.43.19,5.11,10.4c-4.3-2.71-9.63-14.28-8.78-20,2.19,3.16,4.15,5.71,5.82,8.43,5.69,9.28,11.06,18.76,17,27.88,4.4,6.77,8.85,13.72,14.47,19.4,3.29,3.33,6.33,6.29,7.4,11-5.8-4.93-10.25-11-14.46-17.32Z" class="cls-1" transform="translate(-16.76 -75.61)"/><path d="M318,161.09c1.95,5.83,2,10.74-1.33,15-17.17,22.18-38.93,37-67.16,41.19-4.07.6-8.25.49-12.39.71l-.1-1.36c4.71-.56,9.44-1,14.13-1.7,21-3.21,38.6-12.86,53.37-27.94,1.95-2,3.74-4.15,5.71-6.12,4.89-4.88,8.51-10.22,7.13-17.63C317.25,162.86,317.58,162.37,318,161.09Z" class="cls-1" transform="translate(-16.76 -75.61)"/><path d="M191.1,485.68V475.34l1.06-.1c.19,2,.39,3.95.58,5.92l.72.33a30.59,30.59,0,0,0,2-3.84c4.5-12.55,5-25.33,2.38-38.37-1.05-5.16-1.27-10.49-2.34-15.65-1-4.73-2.59-9.33-3.67-14.5.87,1.18,2.15,2.24,2.52,3.56,2,7.13,3.74,14.32,5.62,21.65,3.93.59,5.39,3,2.66,6.28-2.35,2.81-2,5.57-1.71,8.53a67.41,67.41,0,0,1-2.78,26.75C197,479.74,195.58,483.68,191.1,485.68Z" class="cls-1" transform="translate(-16.76 -75.61)"/><path d="M547.2,334.85c-5,4.59-9.83,9.3-9,16.76.28,2.44,1.65,4.76,2.8,7.88l4.48-5.59.86.49a39.24,39.24,0,0,0-1.81,3.61c-1.88,4.91-4.55,9.72-5.34,14.81-1.88,12.12,5.36,20.5,13.42,28.1,1.37,1.29,3.9,1.66,6,1.86,2.91.27,3.69-1.16,3.15-4.55.81,1,2.39,2.14,2.24,2.95a5,5,0,0,1-2.72,2.92c-4,1.77-10.21-.54-13.92-5.37a112.58,112.58,0,0,1-7.69-11.6c-4.18-7.11-3.37-14.54-.59-21.85,1-2.69,1.05-4.7-.57-7.31C533.44,349.86,537.37,339.33,547.2,334.85Z" class="cls-1" transform="translate(-16.76 -75.61)"/><path d="M193.68,357.39c.88.46,1.77.89,2.63,1.38,3.8,2.16,7,1.51,9-2.35A5.47,5.47,0,0,0,205,352c-.85-1.65-2.47-2.91-3.4-4.76,2.41,1.8,6.89.12,7.34,5.21.25,2.93,7.51,8.64,10.51,9s6.23-2.54,6.12-6.51A103.14,103.14,0,0,0,223.39,337c-.78-3.74-2.84-7.21-3.63-11.32a17.37,17.37,0,0,1,2.42,3c3.84,7.83,6.38,15.95,5.71,24.85-.3,4-1.78,7.22-5.34,9.17s-6.3-.43-9-2.27a12.29,12.29,0,0,1-2.43-2.05c-2-2.27-3.53-1.47-5.19.46C201.83,363.64,197.29,363.28,193.68,357.39Z" class="cls-1" transform="translate(-16.76 -75.61)"/><path d="M699.73,196.59c-1.1,3.08-1.62,6.57-3.41,9.17-6.44,9.39-12.54,19.19-20.2,27.51-10.86,11.78-22.94,22.44-34.62,33.43a14.86,14.86,0,0,1-7.14,3.39c5.51-4.56,11.15-9,16.49-13.71,15.82-14.07,30.57-29.12,41.58-47.38,2.41-4,4.11-8.41,6.13-12.63Z" class="cls-1" transform="translate(-16.76 -75.61)"/><path d="M125.06,145.9c1.79-4.32,4-8.52,5.25-13a107.92,107.92,0,0,0,2.8-16,69.82,69.82,0,0,0,.1-10.92c-.4-9.67-6.3-16.08-13.39-21.53-3.83-2.94-8.13-5.28-12.09-8.27a8.27,8.27,0,0,1,2.52.67c5.59,3.77,11.51,7.16,16.55,11.56,6.45,5.63,8.87,13.35,8.54,21.9-.41,10.38-1.1,20.71-5.78,30.25a58,58,0,0,1-3.78,5.87Z" class="cls-1" transform="translate(-16.76 -75.61)"/><path d="M168,342.78l2.75-3.66,1,.58-3.82,6.58-1.53-.28a29.57,29.57,0,0,1-.85-5.12c.06-7,.34-14,.41-21a10.33,10.33,0,0,0-.82-4.64c-.67-1.35-2.1-2.33-3.2-3.47-1.13,1.51-3.44,3.29-3.18,4.49,1.35,6.16-4.21,6.73-6.93,10.33-.47-3.61-.83-6.44-1.38-10.64l4,6.22c.7-1.35,1.44-2.56,2-3.86.28-.71-.08-1.77.32-2.32,1.58-2.15,3-4.79,5.18-5.94,1-.52,3.59,2,5.39,3.13.35-1.2.9-3.05,1.44-4.91l1.08.19-3,34.19Z" class="cls-1" transform="translate(-16.76 -75.61)"/><path d="M533.93,378.93c-21-.47-41.76-3.07-61.77-10.13-7.92-2.79-15.21-6.71-20.21-14a10.31,10.31,0,0,1,1.61,1C464.39,366,477.83,370.42,492,372.56c12.8,1.94,25.76,2.91,38.64,4.33,1.18.13,2.34.46,3.51.69Z" class="cls-1" transform="translate(-16.76 -75.61)"/><path d="M284.21,319.45a29.11,29.11,0,0,1-42.08.44c-7-7.23-11.16-16-13.32-25.77-.12-.54.05-1.14,1-1.94.65,1.89,1.32,3.76,1.92,5.66a52.18,52.18,0,0,0,14.75,23.63c6.46,5.82,13.68,7.18,21.76,4.4,3.75-1.29,7.42-2.84,11.11-4.3C281,320.91,282.58,320.16,284.21,319.45Z" class="cls-1" transform="translate(-16.76 -75.61)"/><path d="M200.73,210.85c1.25,1.37,2.89,2.55,3.66,4.15,1.9,3.93,3.3,8.1,5.08,12.1a10.71,10.71,0,0,0,3.49,4.16c3.61-14.62,1-28.75-1.52-42.93,5.26,14.27,6.08,29,4.71,44.09-3,2.29-5.32,1.21-6.82-1.66-1.77-3.4-3-7.06-4.64-10.54-1.35-2.89-2.91-5.68-4.38-8.52Z" class="cls-1" transform="translate(-16.76 -75.61)"/><path d="M558.29,323.82c.24,1.7.45,3.4.72,5.09.44,2.78,1.32,4.35,4.72,2.85,4.3-1.91,8.89-2.42,13.56-.2-.75.08-1.5.18-2.26.25-2.89.25-5.89.08-8.64.81-9.61,2.55-11.7,6.26-9.49,15.92.91,4,1.75,8,2.74,12,1.47,5.93,3.35,11.58,11.26,12.53-4.29,1.55-6.57.92-9-2.45a16,16,0,0,1-2.68-5.28c-1.81-7.31-3.54-14.66-4.9-22.07-.34-1.85.17-4.6,1.39-5.86,2.6-2.65,2.34-5.24,1.56-8.32a26.71,26.71,0,0,1-.34-5.16Z" class="cls-1" transform="translate(-16.76 -75.61)"/><path d="M74,255.16l2.32-8.84c.88,1.88,1.32,2.82,1.87,4a1.17,1.17,0,0,1,.7-.06c1.31.51,3.33.77,3.74,1.71a88.87,88.87,0,0,1,3.89,11.28,13.17,13.17,0,0,1,.06,3.85l-6.31,2-4-2.79,2.91-4.54c.7-1.1,1.85-2.18,2-3.34a27.81,27.81,0,0,0-.61-5.69c-1.47.62-2.94,1.26-4.42,1.86C75.69,254.73,75.19,254.83,74,255.16Z" class="cls-1" transform="translate(-16.76 -75.61)"/><path d="M606.32,548.37l12.15-23.06-1.29-.77c-10.19,11.21-18,24.23-27.17,36.82-.16-.75-.38-1.16-.26-1.33q12.54-17.89,25.15-35.76a6.87,6.87,0,0,1,2-1.91c.73-.43,2.16-.93,2.43-.63a5,5,0,0,1,.87,2.75,3.7,3.7,0,0,1-.61,1.86q-6.06,11.31-12.17,22.6Z" class="cls-1" transform="translate(-16.76 -75.61)"/><path d="M160.71,221.47c.58-3.59,1.47-8.38,2-13.2.12-1.05-.93-2.22-1.43-3.34a26.32,26.32,0,0,0-2.84,2.26c-1.12,1.14-2.08,2.44-3.11,3.67a47.41,47.41,0,0,1-2-4.89,4.28,4.28,0,0,1,.84-3.31l1.73,4.16a7.62,7.62,0,0,1,1.36-1.47c1.45-.88,3.72-2.69,4.31-2.26a8.26,8.26,0,0,1,3.07,4.88c.39,2.36-.26,4.88-.49,7.7,1.22-.24,2.08-.44,2.94-.58,2.48-.4,4.53.87,3.8,3.11a40,40,0,0,1-5.36,10.23c-.64.92-3.19.51-4.91.16,4.41-1.29,7.56-4.26,8.2-8.5a2.94,2.94,0,0,0-.68-2.42,2.86,2.86,0,0,0-2.45.31C163.76,219.21,161.87,220.65,160.71,221.47Z" class="cls-1" transform="translate(-16.76 -75.61)"/><path d="M429.4,502.15l-2.93.28c3.41-3.54,27.69-12.4,32.26-11.95-1.54,3.44-24.82,14-32.71,14.31l3.39-2.63,15.23-5-.54-1.43Z" class="cls-1" transform="translate(-16.76 -75.61)"/><path d="M75.71,427c18.9,3,41.28-14.5,45.37-36.41.09,1.35.53,2.8.21,4.05-4.26,16.19-18.58,33.16-40.84,34.79-1.66.12-3.41-.91-5.12-1.41Z" class="cls-1" transform="translate(-16.76 -75.61)"/><path d="M608.28,509.68c8.22-22,17.29-43.77,16.18-68l1.06-.21c.37,1.61,1.26,3.31,1,4.83-1.68,10.42-2.91,21-5.64,31.16-3,11.06-7.39,21.74-11.18,32.58Z" class="cls-1" transform="translate(-16.76 -75.61)"/><path d="M517.16,436.42C509,447,496.46,452.12,485.63,460c3.16,2.22,4.26,1.22,4.27-2.75,1.31,1.5,2.43,2.24,2.37,2.85-.08.84-1,2.17-1.69,2.26-1.92.24-4.09.44-5.8-.25-2.49-1-1.48-2.67.17-3.85,4.83-3.47,9.75-6.84,14.55-10.35,5.62-4.11,11.16-8.34,16.74-12.52Z" class="cls-1" transform="translate(-16.76 -75.61)"/><path d="M133.08,178.85c3.36-7.61.69-14.61,2.15-21.14a5.16,5.16,0,0,1,1,.22c0,6.28.13,12.56-.19,18.82a4.47,4.47,0,0,1-2.92,3.19c-1.07.16-2.7-1.28-3.58-2.41-1.61-2.09-2.71-4.56-4.31-6.66a5.39,5.39,0,0,0-3.35-2.17c-.72,0-1.69,1.71-2.28,2.81-1.7,3.11-3.22,6.31-4.9,9.43-.26.49-1,.72-2.27,1.56,2.5-5.46,4.38-10.26,6.88-14.71,1.36-2.41,4-2,5.74-.06a69.12,69.12,0,0,1,4.36,6.13C130.35,175.2,131.36,176.52,133.08,178.85Z" class="cls-1" transform="translate(-16.76 -75.61)"/><path d="M61.17,303.16c-3.92,4.2-5-1.65-8-2.6l2.66-3.22,2.88,4.77L66,296.55c-.87,4.08-1.54,7.2-2.21,10.31,8-2.9,11.62-8.42,12.44-16l1.13.14a18.52,18.52,0,0,1-.06,4.47,19.37,19.37,0,0,1-8.42,11.66c-1.65,1.08-3.82,1.37-5.75,2Z" class="cls-1" transform="translate(-16.76 -75.61)"/><path d="M634.23,323.61c0-3.21.12-6.42,0-9.62a52.16,52.16,0,0,0-1-8.66c-.83-3.71-3.6-5.25-7.22-4-7.44,2.48-11.39,8.27-13.84,15.31-.59,1.7-.93,3.49-1.38,5.23l-1.07-.18c.46-2.43.56-5,1.44-7.28,2.81-7.17,7.19-13,15.08-15.14,3.43-.92,6.78.12,8,3.48C636.64,309.54,635.71,316.62,634.23,323.61Z" class="cls-1" transform="translate(-16.76 -75.61)"/><path d="M628.9,446.16c2.7,5.84,5.17,11.8,8.18,17.47,3.34,6.3,8.23,11.27,15.56,12.42,3.4.54,7-.41,10.57-.7a11.53,11.53,0,0,1,3.75.07c-6.86,3.65-14,4-20.57-.06a34.86,34.86,0,0,1-10.27-10.15c-3.09-4.69-4.93-10.21-7.23-15.41a18.72,18.72,0,0,1-.82-3.55Z" class="cls-1" transform="translate(-16.76 -75.61)"/><path d="M128.7,279.3c5.37-5.35,8.27-10.88,9.44-17.3l-1.3-.84L128,273.85l-1-.6c.51-1.91,1-3.83,1.66-6.25l-4.25.65c.41-.77.58-1.65,1-1.75,1.78-.49,3.62-.76,5.43-1.11l.37,1.17a61.63,61.63,0,0,1,4.13-5.78,3.69,3.69,0,0,1,3.07-1.11,3.28,3.28,0,0,1,1.62,2.7c-.68,6.85-4.3,12.36-8.58,17.48C131.1,279.64,129.9,279.3,128.7,279.3Z" class="cls-1" transform="translate(-16.76 -75.61)"/><path d="M422.69,361.65c.3-.56.6-1.95,1.27-2.16a3.86,3.86,0,0,1,3.2.53,35.06,35.06,0,0,1,4.74,5.29c2.8,3.74-1.17,4.86-3,6.32-2.31,1.88-3.79-.63-4.47-2.21C423.5,367.17,423.32,364.59,422.69,361.65Z" class="cls-1" transform="translate(-16.76 -75.61)"/><path d="M441.12,298.54,431,281.91l1.26-.87q2.16,3.22,4.31,6.47l.53-.29-11.4-19.7,1.56-.86c.7,1.39,1.32,2.83,2.13,4.15,2.76,4.52,5.64,9,8.37,13.5,1.28,2.14,3.17,3.89,1.79,7.18-.6,1.42,1.76,4.07,2.77,6.17Z" class="cls-1" transform="translate(-16.76 -75.61)"/><path d="M55.73,212.15l.8,5.2,2.88-1.7c2.94,2.1,3.7,1.62,5.67-3.94,1.58,1.72,1.7,4.29-.79,5.57-6.9,3.57-8.1,11.93-14.85,15.82l-1-2.41c2.58-2.51,5-4.62,7.12-7,1.27-1.46,1.55-3-.49-4.69C52.45,216.8,53,214.18,55.73,212.15Z" class="cls-1" transform="translate(-16.76 -75.61)"/><path d="M112.42,358.4c4.34-.39,5.69,1,4.27,4.19a21.56,21.56,0,0,1-12.36,11.76c-3.09,1.17-5.47-.65-6.41-3.72A27.18,27.18,0,0,1,96.77,364c-.13-2.89-.85-4.68-4.78-3l.17-1.22c1.2-.74,2.52-2.19,3.58-2s2.15,1.91,2.47,3.16c.66,2.55.68,5.25,1.21,7.84.79,3.87,3.07,5,6.31,2.76a47.48,47.48,0,0,0,7.83-7.24C115.27,362.4,116.35,360,112.42,358.4Z" class="cls-1" transform="translate(-16.76 -75.61)"/><path d="M600.88,411.12c2.41,8.24-4,14.54-5.31,23.17,6.79-4.31,10.79-9.56,14.6-15.57-.14,1.09.1,2.53-.5,3.23q-5.77,6.75-11.94,13.15c-.62.65-2.8.94-3.11.53a4.66,4.66,0,0,1-.76-3.56c.7-2.54,2-4.91,2.81-7.42C598.11,420.31,599.39,415.92,600.88,411.12Z" class="cls-1" transform="translate(-16.76 -75.61)"/><path d="M528,337.85c-1,1.72-1.53,3.62-2.68,4.18s-2.93-.17-4.36-.59c-.68-.2-1.18-1-1.78-1.54-.86-.75-2.49-1.5-2.47-2.21,0-1.45.64-3.4,3-2,0,0,.33-.25.4-.42.76-1.89,1.69-4.32,4.08-2.84C525.9,333.43,526.71,335.87,528,337.85Z" class="cls-1" transform="translate(-16.76 -75.61)"/><path d="M600,375.6c.35,1.65.67,3.32,1.06,5,1.17,4.89,4,6.08,8.06,3s7.69-6.56,7.89-12.22a11,11,0,0,1,.87-2.6c2.65,2.37,5.24,3.91,7.4-1,.27.54.54,1.08.8,1.62-1.23,1.21-2.48,3.44-3.71,3.43-3.2,0-3.52,2.3-5,4.08a55.93,55.93,0,0,1-9.09,9.17c-3.08,2.37-6.62,1.26-8.13-2.28-1-2.46-1.22-5.29-1.78-8Z" class="cls-1" transform="translate(-16.76 -75.61)"/><path d="M752.76,441.92a147.17,147.17,0,0,1,9.07,49.65Z" class="cls-1" transform="translate(-16.76 -75.61)"/><path d="M755.15,380.63c-5.85-1-9.87-4.79-13.41-9.2-.51-.63-.22-1.9-.29-2.87.95,0,2.19-.32,2.82.15,3.07,2.23,6,4.61,8.89,7.11a26.78,26.78,0,0,1,3.07,3.9Z" class="cls-1" transform="translate(-16.76 -75.61)"/><path d="M684.42,321.4l5-5.9c1.15,1.67,3.27,3.37,3.23,5-.06,2.08-1.47,5.39-3,5.86C687.69,327,685.22,325.07,684.42,321.4Z" class="cls-1" transform="translate(-16.76 -75.61)"/><path d="M150,270.6c.11-4.8,3.41-9.17,6.49-9.56,2.39-.3,3.09.95,2.27,2.74a52.43,52.43,0,0,1-4.55,7.84c-.52.76-2.16,1.54-2.79,1.25C150.6,272.48,150.26,271,150,270.6Z" class="cls-1" transform="translate(-16.76 -75.61)"/><path d="M178.57,109.68h-3.1l-.26-.64c.81-.48,1.72-1.46,2.4-1.31.87.18,2.32,1.58,2.18,1.92-.81,2-1.58,4.41-3.16,5.74a143.26,143.26,0,0,1-14,10.42,86.53,86.53,0,0,1-13.13,6.67C158.76,124.76,171.24,121.18,178.57,109.68Z" class="cls-1" transform="translate(-16.76 -75.61)"/><path d="M77.42,377.39c4.32-1.09,6.78-8.78,6-17.72l1-.33,2,6.58,7.45,1.88,0,1.7c-1.13.11-2.47.67-3.37.26-3.12-1.41-5-.83-6.36,2.4a55.33,55.33,0,0,1-2.7,6.15C79.83,381.07,78.5,380.38,77.42,377.39Z" class="cls-1" transform="translate(-16.76 -75.61)"/><path d="M478.66,359.53c-11.36-4.47-22.1-10-31.42-18.17l31.94,17.29Z" class="cls-1" transform="translate(-16.76 -75.61)"/><path d="M118.74,124.67c7.44-20,6.06-25.18,0-30.81l.81-.82c1.5,1.49,3.47,2.73,4.39,4.51,2.79,5.39,2.09,11.07.33,16.61-1.2,3.77-2.77,7.43-4.18,11.13Z" class="cls-1" transform="translate(-16.76 -75.61)"/><path d="M790.69,435.09c-3.2-2.54-6.3-14-4.69-17.28,3.66,2.58,5,6.66,3.59,10.06-.24.55.43,1.5.69,2.26q.81,2.3,1.64,4.57Z" class="cls-1" transform="translate(-16.76 -75.61)"/><path d="M794.39,415.91c-6.27-11.05-13-21.77-22.83-30.32C778.3,387.31,794.84,409.44,794.39,415.91Z" class="cls-1" transform="translate(-16.76 -75.61)"/><path d="M149.57,366.16c-.6,3.28-2.77,5.53-5.85,5.9-1.43.17-3.13-2-4.74-3.11a10,10,0,0,0-2.41-1.34,11.24,11.24,0,0,1-4-1.61L135.9,365l-1-3.06,4.39-.48,2.89,8.51Z" class="cls-1" transform="translate(-16.76 -75.61)"/><path d="M648.2,406.37a21.53,21.53,0,0,0-.52,4.18c.08,1.18.4,2.83,1.22,3.4,4.17,2.91,4.79,4.76,1.74,8.58-1.1,1.37-3.1,2-4.69,3-.52-1.77-1.62-3.59-1.45-5.29.45-4.77,1.42-9.48,2.19-14.22Zm-2.35,16.51,1.88.6a33.62,33.62,0,0,0,2.73-4.84c.24-.62-.5-2-1.17-2.45-.44-.31-2.15.18-2.28.62A51.2,51.2,0,0,0,645.85,422.88Z" class="cls-1" transform="translate(-16.76 -75.61)"/><path d="M691.81,234.1a134.16,134.16,0,0,1-24.58,27.23l-.7-.67Z" class="cls-1" transform="translate(-16.76 -75.61)"/><path d="M611.52,339.79c.09-.71.17-1.42.25-2.12l1.1-.24c.25,1.29.5,2.57.74,3.86-1.28,0-3.09.54-3.77-.1-5-4.67-8.53-10.18-8.43-17.29.05-3.65,1.76-4.73,6-3.86-4.57.9-5.52,3.62-4,7,2,4.53,4.39,8.86,6.61,13.27Z" class="cls-1" transform="translate(-16.76 -75.61)"/><path d="M420.35,323l2.15.79q1.59,6.17,3.17,12.33l-1.12.51-9.92-18.31,1-.82Z" class="cls-1" transform="translate(-16.76 -75.61)"/><path d="M646.68,390l-3.3,3.32c-1.2-1.62-2.94-3.09-3.47-4.91s-.12-4.13,2.76-4.16C646.33,384.19,645.64,387.08,646.68,390Z" class="cls-1" transform="translate(-16.76 -75.61)"/><path d="M448.52,268.62c2.05,2.7,5,4.22,2.32,7.95-1,1.35-.72,3.57-1.09,5.72C445.68,278.78,445.46,276.25,448.52,268.62Z" class="cls-1" transform="translate(-16.76 -75.61)"/><path d="M587.84,528.3c7.87-6.23,11.91-15,16.12-24.2C605.26,510.34,593.83,527.48,587.84,528.3Z" class="cls-1" transform="translate(-16.76 -75.61)"/><path d="M558.89,572.36l12-7.87,1.23,1.47c-2.77,2.84-5.46,5.79-8.43,8.41C563.32,574.73,561.5,573.49,558.89,572.36Z" class="cls-1" transform="translate(-16.76 -75.61)"/><path d="M644.8,360.75c6.24,2.89,6.85,5.6,2.89,9a92.8,92.8,0,0,1-8.5,6.55c-2.48,1.65-3.81.92-4.52-2,3.37.78,12.25-4.25,13.16-7.66.22-.82-.45-1.94-.89-2.84A27,27,0,0,0,644.8,360.75Z" class="cls-1" transform="translate(-16.76 -75.61)"/><path d="M520.46,209.61c-4.36,8.44-3.48,17.17-1.78,26.11C513.68,231.73,514.86,213.75,520.46,209.61Z" class="cls-1" transform="translate(-16.76 -75.61)"/><path d="M178,293.05c4.86,10.52,2.64,20.77-.76,31C179,313.75,181.37,303.48,178,293.05Z" class="cls-1" transform="translate(-16.76 -75.61)"/><path d="M768.1,538.66c1.88-4.38-5.1-9.66,3-13.44L770,538.82Z" class="cls-1" transform="translate(-16.76 -75.61)"/><path d="M72.85,372.69c.7-1.7,1.4-3.39,2.21-5.37l-6.32.65v-3.85a32.5,32.5,0,0,1,5.59.78c1,.32,2.64,1.61,2.52,2.1a48.53,48.53,0,0,1-2.52,6.42Z" class="cls-1" transform="translate(-16.76 -75.61)"/><path d="M146,90.46c5.07.26,7.94,9.78,4.26,16.08-.25-3.13-.12-6.05-.82-8.75C148.74,95.28,147.19,93,146,90.46Z" class="cls-1" transform="translate(-16.76 -75.61)"/><path d="M112.57,242.64l-4.3.72c3.54-4.57,7.4-2.24,11.8-2.92l-2.73,5.43Z" class="cls-1" transform="translate(-16.76 -75.61)"/><path d="M682.81,151v9.42l-1.08.53c-1.09-1.65-3.12-3.35-3-4.93.1-1.76,2.13-3.42,3.32-5.12Z" class="cls-1" transform="translate(-16.76 -75.61)"/><path d="M598.38,327.56c-8.56-.29-6.35,9.31-11.57,12.24C588.78,329.8,592,326.28,598.38,327.56Z" class="cls-1" transform="translate(-16.76 -75.61)"/><path d="M603.63,554l-9.88,14.66-1.23-.82q5-7.27,9.92-14.54Z" class="cls-1" transform="translate(-16.76 -75.61)"/><path d="M77.71,420.17l14.41-3.66C88.14,421.49,82.8,422.89,77.71,420.17Z" class="cls-1" transform="translate(-16.76 -75.61)"/><path d="M259.46,307.75c4.8,4.18,10,2.09,15.29.88A10,10,0,0,1,259.46,307.75Z" class="cls-1" transform="translate(-16.76 -75.61)"/><path d="M509.41,399.28c-1.23-4.57-2.46-9.14-3.66-13.58C508.72,386.87,510.9,393.2,509.41,399.28Z" class="cls-1" transform="translate(-16.76 -75.61)"/><path d="M781.45,554.26q1.26-8.57,2.53-17.14C784,543,785.13,549.05,781.45,554.26Z" class="cls-1" transform="translate(-16.76 -75.61)"/><path d="M788.15,386.88,776.4,376.35c5.48,1.74,9.09,5.64,12.52,9.76Z" class="cls-1" transform="translate(-16.76 -75.61)"/><path d="M285.94,290.43c-.85,3.88-6.22,7.19-10.9,6.46Z" class="cls-1" transform="translate(-16.76 -75.61)"/><path d="M523.27,308.66l-6.91,12.25C515.67,317.67,519.15,311.08,523.27,308.66Z" class="cls-1" transform="translate(-16.76 -75.61)"/><path d="M721.42,436.33V424.25C724,428.32,723.22,432.07,721.42,436.33Z" class="cls-1" transform="translate(-16.76 -75.61)"/><path d="M20.76,384.14l7.63,4.13-.11,1c-2.27-.23-4.66-.14-6.76-.88C20.86,388.11,21,385.63,20.76,384.14Z" class="cls-1" transform="translate(-16.76 -75.61)"/><path d="M637.36,278.48l-6.58-5.72c1.61.14,3.49-.26,4.34.5,1.43,1.29,2.19,3.3,3.24,5Z" class="cls-1" transform="translate(-16.76 -75.61)"/><path d="M547.51,253.13q.65,6.22,1.3,12.44l-1.18.16-1.53-12.4Z" class="cls-1" transform="translate(-16.76 -75.61)"/><path d="M424.1,518.94l-8.51.89c-.07-.57-.14-1.14-.22-1.71l8.47-1.25Z" class="cls-1" transform="translate(-16.76 -75.61)"/><path d="M711.13,375.81l8.46,6.32-.78,1.1-8.53-6.16Z" class="cls-1" transform="translate(-16.76 -75.61)"/><path d="M136.58,289.63c-1.54,3.27-4.13,4.36-8.66,3.34Z" class="cls-1" transform="translate(-16.76 -75.61)"/><path d="M665,426.73l-12,16-.88-.62Q658,434,663.86,425.91Z" class="cls-1" transform="translate(-16.76 -75.61)"/><path d="M664.06,440.86c-1.9,4.26-4.36,6.37-8.93,5.11Z" class="cls-1" transform="translate(-16.76 -75.61)"/><path d="M669.78,439.21l-4.27,5.92-1.19-.86,4.4-5.84Z" class="cls-1" transform="translate(-16.76 -75.61)"/><path d="M704.61,426.86V435h-.42q-.44-4-.85-8.12Z" class="cls-1" transform="translate(-16.76 -75.61)"/><path d="M694.54,411.62l-4.83-2.8C693.37,406.83,693.4,406.85,694.54,411.62Z" class="cls-1" transform="translate(-16.76 -75.61)"/><path d="M581.85,426c.55,2.8.9,4.65,1.29,6.62C580.06,431.46,579.73,430.26,581.85,426Z" class="cls-1" transform="translate(-16.76 -75.61)"/><path d="M596.13,464l4.14-1.32c-.77,3.13-.78,5.79-2,7.65-4.73,7.16-9.33,14.54-15,20.93-4.16,4.69-9.39,9.21-15.06,11.61-10.14,4.3-20.13,9.47-31.42,10.6-4.46.44-7.69-1.19-11.3-5.64l2.67,7c-2.74-2.07-5.11-3.42-6.91-5.32a36.19,36.19,0,0,1-5.65-7.66,8,8,0,0,1-.21-5.24c2.45-9.71,7.74-18,13.56-25.95,2.81-3.85,5.84-7.56,9-11.15,1.27-1.45,3.13-2.38,4.72-3.55l1,1a24.92,24.92,0,0,1-1.49,2.8,38.81,38.81,0,0,0-7,18.37c-.23,2.08-1.26,4.23-1,6.2.78,5,5,7.42,8.47,10.5,6.9,6.1,14.28,3.94,21.52,1.6,8.36-2.7,15.39-7.87,21.33-14.22,1.77-1.9,2.58-5.13,2.87-7.86.46-4.18,2.82-6.63,6-8.75a14.14,14.14,0,0,0,1.76-1.62Z" class="cls-1" transform="translate(-16.76 -75.61)"/><path d="M543.5,492.62c.31-.52.91-1.08.86-1.57a3.21,3.21,0,0,0-1-1.65c-4.9-5.32-5.82-11-1.72-17.23a11.69,11.69,0,0,0,1-2.55c.06-.17-.16-.45-.54-1.38l-4,6.84c.57-6.62,3.79-12,7.42-17.21.53-.76,2.06-1,3.18-1.12,2.79-.39,3.27-1.76,2-4.07l-.06.05c1,4.28,2,8.55,3,12.82a47.67,47.67,0,0,0,1.87,7.28c1.45,3.57,4.15,5.46,8.21,5.87,6.34.65,11.57-2.17,17-4.56,2-.88,3.9-2,6.81-3.43-.53,2.14-.59,3.32-1.09,4.27-6.8,12.81-17.56,19.73-31.89,21.34-4.26.48-7.7-1.31-10.94-3.75Z" class="cls-1" transform="translate(-16.76 -75.61)"/><path d="M543.55,492.57c-3.06-1.81-5.58-4-5.75-8.07l5.7,8.12Z" class="cls-1" transform="translate(-16.76 -75.61)"/><path d="M698,262c-2.6-4.37-5.19-8.74-8.14-13.69l5.1-2a15.12,15.12,0,0,0,0,3.25c1.14,4.14,2.4,8.26,3.61,12.38Z" class="cls-1" transform="translate(-16.76 -75.61)"/><path d="M698.36,251.31q2.79,9.49,5.57,19l-1,.29q-2.8-9.48-5.6-19Z" class="cls-1" transform="translate(-16.76 -75.61)"/><path d="M785.4,529.3c.55-5.82-2.33-11.87,1-17.5C789.21,517.79,787.23,523.55,785.4,529.3Z" class="cls-1" transform="translate(-16.76 -75.61)"/><path d="M429.4,502.15l14.7-6.39.54,1.43-15.23,5Z" class="cls-1" transform="translate(-16.76 -75.61)"/><path d="M645.85,422.88a51.2,51.2,0,0,1,1.16-6.07c.13-.44,1.84-.93,2.28-.62.67.48,1.41,1.83,1.17,2.45a33.62,33.62,0,0,1-2.73,4.84Z" class="cls-1" transform="translate(-16.76 -75.61)"/></svg>