<svg xmlns="http://www.w3.org/2000/svg" width="516" height="385" viewBox="0 0 516 385"><style>.shp0{fill:none;stroke:#444;stroke-linecap:round;stroke-linejoin:round}.shp0,.shp1{stroke-width:15}.shp1,.shp2{fill:none;stroke-linecap:round;stroke-linejoin:round}.shp1{stroke:#777}.shp2{stroke:#000;stroke-width:4}</style><path class="shp0"/><path class="shp1"/><g><path fill-rule="evenodd" d="M435 195C435 294.41 354.41 375 255 375C155.59 375 75 294.41 75 195M255 345C337.84 345 405 277.84 405 195M75 195C174.41 195 255 114.41 255 15L75 195ZM435 195C335.59 195 255 114.41 255 15M435 195C435 95.59 354.41 15 255 15M75 195C75 95.59 155.59 15 255 15M120 225C111.72 225 105 231.72 105 240C105 248.28 111.72 255 120 255C128.28 255 135 248.28 135 240C135 231.72 128.28 225 120 225ZM285 180C276.72 180 270 173.28 270 165C270 156.72 276.72 150 285 150M285 150C293.28 150 300 156.72 300 165M300 165C300 173.28 293.28 180 285 180M360 90C360 98.28 353.28 105 345 105C336.72 105 330 98.28 330 90C330 81.72 336.72 75 345 75C353.28 75 360 81.72 360 90ZM210 60C210 51.72 187.44 41.78 162.58 41.78M180 90C180 81.72 154.35 75.4 121.21 75.4M150 120C150 111.72 124.61 104.19 99.76 104.19M120 150C120 141.72 103.35 137.01 86.78 137.01M255 195L255 195L255 375M75 195L75 195L435 195M255 195L255 195L127.72 321.07M255 195L255 195L384.27 320.24" class="shp2"/></g></svg>